<?xml version="1.0" encoding="UTF-8" standalone="no"?><svg xmlns="http://www.w3.org/2000/svg" xmlns:xlink="http://www.w3.org/1999/xlink" contentScriptType="application/ecmascript" contentStyleType="text/css" height="862px" preserveAspectRatio="none" style="width:1303px;height:862px;" version="1.1" viewBox="0 0 1303 862" width="1303px" zoomAndPan="magnify"><defs><filter height="300%" id="fre11mcoo5udx" width="300%" x="-1" y="-1"><feGaussianBlur result="blurOut" stdDeviation="2.0"/><feColorMatrix in="blurOut" result="blurOut2" type="matrix" values="0 0 0 0 0 0 0 0 0 0 0 0 0 0 0 0 0 0 .4 0"/><feOffset dx="4.0" dy="4.0" in="blurOut2" result="blurOut3"/><feBlend in="SourceGraphic" in2="blurOut3" mode="normal"/></filter></defs><g><!--cluster mastermind.views--><polygon fill="#FFFFFF" filter="url(#fre11mcoo5udx)" points="199,24,332,24,339,47.6094,1095,47.6094,1095,850,199,850,199,24" style="stroke: #000000; stroke-width: 1.5;"/><line style="stroke: #000000; stroke-width: 1.5;" x1="199" x2="339" y1="47.6094" y2="47.6094"/><text fill="#000000" font-family="sans-serif" font-size="14" font-weight="bold" lengthAdjust="spacingAndGlyphs" textLength="127" x="203" y="40.5332">mastermind.views</text><!--cluster mastermind.utils--><polygon fill="#FFFFFF" filter="url(#fre11mcoo5udx)" points="1119,65.5,1241,65.5,1248,89.1094,1281,89.1094,1281,165.5,1119,165.5,1119,65.5" style="stroke: #000000; stroke-width: 1.5;"/><line style="stroke: #000000; stroke-width: 1.5;" x1="1119" x2="1248" y1="89.1094" y2="89.1094"/><text fill="#000000" font-family="sans-serif" font-size="14" font-weight="bold" lengthAdjust="spacingAndGlyphs" textLength="116" x="1123" y="82.0332">mastermind.utils</text><!--cluster mastermind.models--><polygon fill="#FFFFFF" filter="url(#fre11mcoo5udx)" points="22,413.5,165,413.5,172,437.1094,175,437.1094,175,513.5,22,513.5,22,413.5" style="stroke: #000000; stroke-width: 1.5;"/><line style="stroke: #000000; stroke-width: 1.5;" x1="22" x2="172" y1="437.1094" y2="437.1094"/><text fill="#000000" font-family="sans-serif" font-size="14" font-weight="bold" lengthAdjust="spacingAndGlyphs" textLength="137" x="26" y="430.0332">mastermind.models</text><!--class mastermind.views.Color--><rect fill="#FEFECE" filter="url(#fre11mcoo5udx)" height="227.8672" id="mastermind.views.Color" style="stroke: #A80036; stroke-width: 1.5;" width="143" x="799.5" y="606"/><ellipse cx="851.75" cy="622" fill="#ADD1B2" rx="11" ry="11" style="stroke: #A80036; stroke-width: 1.0;"/><path d="M854.5156,617.875 Q854.6719,617.6563 854.8594,617.5469 Q855.0469,617.4375 855.2656,617.4375 Q855.6406,617.4375 855.875,617.6953 Q856.1094,617.9531 856.1094,618.5625 L856.1094,620.0156 Q856.1094,620.625 855.875,620.8906 Q855.6406,621.1563 855.2656,621.1563 Q854.9219,621.1563 854.7188,620.9531 Q854.5156,620.7656 854.4063,620.25 Q854.3594,619.8906 854.1719,619.7031 Q853.8438,619.3281 853.2344,619.1094 Q852.625,618.8906 852,618.8906 Q851.2344,618.8906 850.6016,619.2188 Q849.9688,619.5469 849.4766,620.2969 Q848.9844,621.0469 848.9844,622.0781 L848.9844,623.1719 Q848.9844,624.4063 849.875,625.2266 Q850.7656,626.0469 852.3594,626.0469 Q853.2969,626.0469 853.9531,625.7969 Q854.3438,625.6406 854.7656,625.2031 Q855.0313,624.9375 855.1797,624.8594 Q855.3281,624.7813 855.5313,624.7813 Q855.8594,624.7813 856.1172,625.0391 Q856.375,625.2969 856.375,625.6406 Q856.375,625.9844 856.0313,626.3906 Q855.5313,626.9688 854.7344,627.2969 Q853.6563,627.75 852.3594,627.75 Q850.8438,627.75 849.6406,627.125 Q848.6563,626.625 847.9688,625.5547 Q847.2813,624.4844 847.2813,623.2031 L847.2813,622.0469 Q847.2813,620.7188 847.8984,619.5703 Q848.5156,618.4219 849.6094,617.8047 Q850.7031,617.1875 851.9375,617.1875 Q852.6719,617.1875 853.3203,617.3516 Q853.9688,617.5156 854.5156,617.875 Z "/><text fill="#000000" font-family="sans-serif" font-size="12" lengthAdjust="spacingAndGlyphs" textLength="30" x="872.25" y="626.9102">Color</text><line style="stroke: #A80036; stroke-width: 1.5;" x1="800.5" x2="941.5" y1="638" y2="638"/><ellipse cx="810.5" cy="650.418" fill="none" rx="3" ry="3" style="stroke: #038048; stroke-width: 1.0;"/><text fill="#000000" font-family="sans-serif" font-size="11" lengthAdjust="spacingAndGlyphs" text-decoration="underline" textLength="51" x="819.5" y="653.4189">RED: Color</text><ellipse cx="810.5" cy="664.2539" fill="none" rx="3" ry="3" style="stroke: #038048; stroke-width: 1.0;"/><text fill="#000000" font-family="sans-serif" font-size="11" lengthAdjust="spacingAndGlyphs" text-decoration="underline" textLength="57" x="819.5" y="667.2549">BLUE: Color</text><ellipse cx="810.5" cy="678.0898" fill="none" rx="3" ry="3" style="stroke: #038048; stroke-width: 1.0;"/><text fill="#000000" font-family="sans-serif" font-size="11" lengthAdjust="spacingAndGlyphs" text-decoration="underline" textLength="75" x="819.5" y="681.0908">YELLOW: Color</text><ellipse cx="810.5" cy="691.9258" fill="none" rx="3" ry="3" style="stroke: #038048; stroke-width: 1.0;"/><text fill="#000000" font-family="sans-serif" font-size="11" lengthAdjust="spacingAndGlyphs" text-decoration="underline" textLength="65" x="819.5" y="694.9268">GREEN: Color</text><ellipse cx="810.5" cy="705.7617" fill="none" rx="3" ry="3" style="stroke: #038048; stroke-width: 1.0;"/><text fill="#000000" font-family="sans-serif" font-size="11" lengthAdjust="spacingAndGlyphs" text-decoration="underline" textLength="75" x="819.5" y="708.7627">ORANGE: Color</text><ellipse cx="810.5" cy="719.5977" fill="none" rx="3" ry="3" style="stroke: #038048; stroke-width: 1.0;"/><text fill="#000000" font-family="sans-serif" font-size="11" lengthAdjust="spacingAndGlyphs" text-decoration="underline" textLength="69" x="819.5" y="722.5986">PURPLE: Color</text><rect fill="none" height="6" style="stroke: #C82930; stroke-width: 1.0;" width="6" x="807.5" y="730.4336"/><text fill="#000000" font-family="sans-serif" font-size="11" lengthAdjust="spacingAndGlyphs" textLength="51" x="819.5" y="736.4346">initial: char</text><line style="stroke: #A80036; stroke-width: 1.5;" x1="800.5" x2="941.5" y1="742.8516" y2="742.8516"/><rect fill="#F24D5C" height="6" style="stroke: #C82930; stroke-width: 1.0;" width="6" x="807.5" y="752.2695"/><text fill="#000000" font-family="sans-serif" font-size="11" lengthAdjust="spacingAndGlyphs" textLength="55" x="819.5" y="758.2705">Color(char)</text><ellipse cx="810.5" cy="769.1055" fill="#84BE84" rx="3" ry="3" style="stroke: #038048; stroke-width: 1.0;"/><text fill="#000000" font-family="sans-serif" font-size="11" lengthAdjust="spacingAndGlyphs" text-decoration="underline" textLength="105" x="819.5" y="772.1064">valueOf(String): Color</text><polygon fill="#4177AF" points="810.5,778.9414,806.5,784.9414,814.5,784.9414" style="stroke: #1963A0; stroke-width: 1.0;"/><text fill="#000000" font-family="sans-serif" font-size="11" lengthAdjust="spacingAndGlyphs" text-decoration="underline" textLength="117" x="819.5" y="785.9424">getInstance(char): Color</text><polygon fill="#4177AF" points="810.5,792.7773,806.5,798.7773,814.5,798.7773" style="stroke: #1963A0; stroke-width: 1.0;"/><text fill="#000000" font-family="sans-serif" font-size="11" lengthAdjust="spacingAndGlyphs" text-decoration="underline" textLength="106" x="819.5" y="799.7783">getInstance(int): Color</text><polygon fill="#4177AF" points="810.5,806.6133,806.5,812.6133,814.5,812.6133" style="stroke: #1963A0; stroke-width: 1.0;"/><text fill="#000000" font-family="sans-serif" font-size="11" lengthAdjust="spacingAndGlyphs" text-decoration="underline" textLength="81" x="819.5" y="813.6143">allInitials(): String</text><polygon fill="#4177AF" points="810.5,820.4492,806.5,826.4492,814.5,826.4492" style="stroke: #1963A0; stroke-width: 1.0;"/><text fill="#000000" font-family="sans-serif" font-size="11" lengthAdjust="spacingAndGlyphs" textLength="74" x="819.5" y="827.4502">getInitial(): char</text><!--class mastermind.views.Error--><rect fill="#FEFECE" filter="url(#fre11mcoo5udx)" height="144.8516" id="mastermind.views.Error" style="stroke: #A80036; stroke-width: 1.5;" width="172" x="670" y="401"/><ellipse cx="738.25" cy="417" fill="#ADD1B2" rx="11" ry="11" style="stroke: #A80036; stroke-width: 1.0;"/><path d="M741.0156,412.875 Q741.1719,412.6563 741.3594,412.5469 Q741.5469,412.4375 741.7656,412.4375 Q742.1406,412.4375 742.375,412.6953 Q742.6094,412.9531 742.6094,413.5625 L742.6094,415.0156 Q742.6094,415.625 742.375,415.8906 Q742.1406,416.1563 741.7656,416.1563 Q741.4219,416.1563 741.2188,415.9531 Q741.0156,415.7656 740.9063,415.25 Q740.8594,414.8906 740.6719,414.7031 Q740.3438,414.3281 739.7344,414.1094 Q739.125,413.8906 738.5,413.8906 Q737.7344,413.8906 737.1016,414.2188 Q736.4688,414.5469 735.9766,415.2969 Q735.4844,416.0469 735.4844,417.0781 L735.4844,418.1719 Q735.4844,419.4063 736.375,420.2266 Q737.2656,421.0469 738.8594,421.0469 Q739.7969,421.0469 740.4531,420.7969 Q740.8438,420.6406 741.2656,420.2031 Q741.5313,419.9375 741.6797,419.8594 Q741.8281,419.7813 742.0313,419.7813 Q742.3594,419.7813 742.6172,420.0391 Q742.875,420.2969 742.875,420.6406 Q742.875,420.9844 742.5313,421.3906 Q742.0313,421.9688 741.2344,422.2969 Q740.1563,422.75 738.8594,422.75 Q737.3438,422.75 736.1406,422.125 Q735.1563,421.625 734.4688,420.5547 Q733.7813,419.4844 733.7813,418.2031 L733.7813,417.0469 Q733.7813,415.7188 734.3984,414.5703 Q735.0156,413.4219 736.1094,412.8047 Q737.2031,412.1875 738.4375,412.1875 Q739.1719,412.1875 739.8203,412.3516 Q740.4688,412.5156 741.0156,412.875 Z "/><text fill="#000000" font-family="sans-serif" font-size="12" lengthAdjust="spacingAndGlyphs" textLength="27" x="758.75" y="421.9102">Error</text><line style="stroke: #A80036; stroke-width: 1.5;" x1="671" x2="841" y1="433" y2="433"/><ellipse cx="681" cy="445.418" fill="none" rx="3" ry="3" style="stroke: #038048; stroke-width: 1.0;"/><text fill="#000000" font-family="sans-serif" font-size="11" lengthAdjust="spacingAndGlyphs" text-decoration="underline" textLength="92" x="690" y="448.4189">DUPLICATED: Error</text><ellipse cx="681" cy="459.2539" fill="none" rx="3" ry="3" style="stroke: #038048; stroke-width: 1.0;"/><text fill="#000000" font-family="sans-serif" font-size="11" lengthAdjust="spacingAndGlyphs" text-decoration="underline" textLength="146" x="690" y="462.2549">WRONG_CHARACTERS: Error</text><ellipse cx="681" cy="473.0898" fill="none" rx="3" ry="3" style="stroke: #038048; stroke-width: 1.0;"/><text fill="#000000" font-family="sans-serif" font-size="11" lengthAdjust="spacingAndGlyphs" text-decoration="underline" textLength="116" x="690" y="476.0908">WRONG_LENGTH: Error</text><rect fill="none" height="6" style="stroke: #C82930; stroke-width: 1.0;" width="6" x="678" y="483.9258"/><text fill="#000000" font-family="sans-serif" font-size="11" lengthAdjust="spacingAndGlyphs" textLength="78" x="690" y="489.9268">message: String</text><line style="stroke: #A80036; stroke-width: 1.5;" x1="671" x2="841" y1="496.3438" y2="496.3438"/><rect fill="#F24D5C" height="6" style="stroke: #C82930; stroke-width: 1.0;" width="6" x="678" y="505.7617"/><text fill="#000000" font-family="sans-serif" font-size="11" lengthAdjust="spacingAndGlyphs" textLength="60" x="690" y="511.7627">Error(String)</text><ellipse cx="681" cy="522.5977" fill="#84BE84" rx="3" ry="3" style="stroke: #038048; stroke-width: 1.0;"/><text fill="#000000" font-family="sans-serif" font-size="11" lengthAdjust="spacingAndGlyphs" text-decoration="underline" textLength="104" x="690" y="525.5986">valueOf(String): Error</text><polygon fill="#4177AF" points="681,532.4336,677,538.4336,685,538.4336" style="stroke: #1963A0; stroke-width: 1.0;"/><text fill="#000000" font-family="sans-serif" font-size="11" lengthAdjust="spacingAndGlyphs" textLength="101" x="690" y="539.4346">getMessage(): String</text><!--class mastermind.views.Message--><rect fill="#FEFECE" filter="url(#fre11mcoo5udx)" height="214.0313" id="mastermind.views.Message" style="stroke: #A80036; stroke-width: 1.5;" width="207" x="260.5" y="613"/><ellipse cx="334.25" cy="629" fill="#ADD1B2" rx="11" ry="11" style="stroke: #A80036; stroke-width: 1.0;"/><path d="M337.0156,624.875 Q337.1719,624.6563 337.3594,624.5469 Q337.5469,624.4375 337.7656,624.4375 Q338.1406,624.4375 338.375,624.6953 Q338.6094,624.9531 338.6094,625.5625 L338.6094,627.0156 Q338.6094,627.625 338.375,627.8906 Q338.1406,628.1563 337.7656,628.1563 Q337.4219,628.1563 337.2188,627.9531 Q337.0156,627.7656 336.9063,627.25 Q336.8594,626.8906 336.6719,626.7031 Q336.3438,626.3281 335.7344,626.1094 Q335.125,625.8906 334.5,625.8906 Q333.7344,625.8906 333.1016,626.2188 Q332.4688,626.5469 331.9766,627.2969 Q331.4844,628.0469 331.4844,629.0781 L331.4844,630.1719 Q331.4844,631.4063 332.375,632.2266 Q333.2656,633.0469 334.8594,633.0469 Q335.7969,633.0469 336.4531,632.7969 Q336.8438,632.6406 337.2656,632.2031 Q337.5313,631.9375 337.6797,631.8594 Q337.8281,631.7813 338.0313,631.7813 Q338.3594,631.7813 338.6172,632.0391 Q338.875,632.2969 338.875,632.6406 Q338.875,632.9844 338.5313,633.3906 Q338.0313,633.9688 337.2344,634.2969 Q336.1563,634.75 334.8594,634.75 Q333.3438,634.75 332.1406,634.125 Q331.1563,633.625 330.4688,632.5547 Q329.7813,631.4844 329.7813,630.2031 L329.7813,629.0469 Q329.7813,627.7188 330.3984,626.5703 Q331.0156,625.4219 332.1094,624.8047 Q333.2031,624.1875 334.4375,624.1875 Q335.1719,624.1875 335.8203,624.3516 Q336.4688,624.5156 337.0156,624.875 Z "/><text fill="#000000" font-family="sans-serif" font-size="12" lengthAdjust="spacingAndGlyphs" textLength="51" x="354.75" y="633.9102">Message</text><line style="stroke: #A80036; stroke-width: 1.5;" x1="261.5" x2="466.5" y1="645" y2="645"/><ellipse cx="271.5" cy="657.418" fill="none" rx="3" ry="3" style="stroke: #038048; stroke-width: 1.0;"/><text fill="#000000" font-family="sans-serif" font-size="11" lengthAdjust="spacingAndGlyphs" text-decoration="underline" textLength="77" x="280.5" y="660.4189">TURN: Message</text><ellipse cx="271.5" cy="671.2539" fill="none" rx="3" ry="3" style="stroke: #038048; stroke-width: 1.0;"/><text fill="#000000" font-family="sans-serif" font-size="11" lengthAdjust="spacingAndGlyphs" text-decoration="underline" textLength="89" x="280.5" y="674.2549">SECRET: Message</text><ellipse cx="271.5" cy="685.0898" fill="none" rx="3" ry="3" style="stroke: #038048; stroke-width: 1.0;"/><text fill="#000000" font-family="sans-serif" font-size="11" lengthAdjust="spacingAndGlyphs" text-decoration="underline" textLength="91" x="280.5" y="688.0908">RESUME: Message</text><ellipse cx="271.5" cy="698.9258" fill="none" rx="3" ry="3" style="stroke: #038048; stroke-width: 1.0;"/><text fill="#000000" font-family="sans-serif" font-size="11" lengthAdjust="spacingAndGlyphs" text-decoration="underline" textLength="89" x="280.5" y="701.9268">RESULT: Message</text><ellipse cx="271.5" cy="712.7617" fill="none" rx="3" ry="3" style="stroke: #038048; stroke-width: 1.0;"/><text fill="#000000" font-family="sans-serif" font-size="11" lengthAdjust="spacingAndGlyphs" text-decoration="underline" textLength="181" x="280.5" y="715.7627">PROPOSED_COMBINATION: Message</text><ellipse cx="271.5" cy="726.5977" fill="none" rx="3" ry="3" style="stroke: #038048; stroke-width: 1.0;"/><text fill="#000000" font-family="sans-serif" font-size="11" lengthAdjust="spacingAndGlyphs" text-decoration="underline" textLength="76" x="280.5" y="729.5986">TITLE: Message</text><ellipse cx="271.5" cy="740.4336" fill="none" rx="3" ry="3" style="stroke: #038048; stroke-width: 1.0;"/><text fill="#000000" font-family="sans-serif" font-size="11" lengthAdjust="spacingAndGlyphs" text-decoration="underline" textLength="89" x="280.5" y="743.4346">WINNER: Message</text><ellipse cx="271.5" cy="754.2695" fill="none" rx="3" ry="3" style="stroke: #038048; stroke-width: 1.0;"/><text fill="#000000" font-family="sans-serif" font-size="11" lengthAdjust="spacingAndGlyphs" text-decoration="underline" textLength="92" x="280.5" y="757.2705">LOOSER: Message</text><rect fill="none" height="6" style="stroke: #C82930; stroke-width: 1.0;" width="6" x="268.5" y="765.1055"/><text fill="#000000" font-family="sans-serif" font-size="11" lengthAdjust="spacingAndGlyphs" textLength="78" x="280.5" y="771.1064">message: String</text><line style="stroke: #A80036; stroke-width: 1.5;" x1="261.5" x2="466.5" y1="777.5234" y2="777.5234"/><rect fill="#F24D5C" height="6" style="stroke: #C82930; stroke-width: 1.0;" width="6" x="268.5" y="786.9414"/><text fill="#000000" font-family="sans-serif" font-size="11" lengthAdjust="spacingAndGlyphs" textLength="80" x="280.5" y="792.9424">Message(String)</text><ellipse cx="271.5" cy="803.7773" fill="#84BE84" rx="3" ry="3" style="stroke: #038048; stroke-width: 1.0;"/><text fill="#000000" font-family="sans-serif" font-size="11" lengthAdjust="spacingAndGlyphs" text-decoration="underline" textLength="124" x="280.5" y="806.7783">valueOf(String): Message</text><polygon fill="#4177AF" points="271.5,813.6133,267.5,819.6133,275.5,819.6133" style="stroke: #1963A0; stroke-width: 1.0;"/><text fill="#000000" font-family="sans-serif" font-size="11" lengthAdjust="spacingAndGlyphs" textLength="101" x="280.5" y="820.6143">getMessage(): String</text><!--class mastermind.views.ProposalView--><rect fill="#FEFECE" filter="url(#fre11mcoo5udx)" height="89.5078" id="mastermind.views.ProposalView" style="stroke: #A80036; stroke-width: 1.5;" width="200" x="551" y="251"/><ellipse cx="608.75" cy="267" fill="#ADD1B2" rx="11" ry="11" style="stroke: #A80036; stroke-width: 1.0;"/><path d="M611.5156,262.875 Q611.6719,262.6563 611.8594,262.5469 Q612.0469,262.4375 612.2656,262.4375 Q612.6406,262.4375 612.875,262.6953 Q613.1094,262.9531 613.1094,263.5625 L613.1094,265.0156 Q613.1094,265.625 612.875,265.8906 Q612.6406,266.1563 612.2656,266.1563 Q611.9219,266.1563 611.7188,265.9531 Q611.5156,265.7656 611.4063,265.25 Q611.3594,264.8906 611.1719,264.7031 Q610.8438,264.3281 610.2344,264.1094 Q609.625,263.8906 609,263.8906 Q608.2344,263.8906 607.6016,264.2188 Q606.9688,264.5469 606.4766,265.2969 Q605.9844,266.0469 605.9844,267.0781 L605.9844,268.1719 Q605.9844,269.4063 606.875,270.2266 Q607.7656,271.0469 609.3594,271.0469 Q610.2969,271.0469 610.9531,270.7969 Q611.3438,270.6406 611.7656,270.2031 Q612.0313,269.9375 612.1797,269.8594 Q612.3281,269.7813 612.5313,269.7813 Q612.8594,269.7813 613.1172,270.0391 Q613.375,270.2969 613.375,270.6406 Q613.375,270.9844 613.0313,271.3906 Q612.5313,271.9688 611.7344,272.2969 Q610.6563,272.75 609.3594,272.75 Q607.8438,272.75 606.6406,272.125 Q605.6563,271.625 604.9688,270.5547 Q604.2813,269.4844 604.2813,268.2031 L604.2813,267.0469 Q604.2813,265.7188 604.8984,264.5703 Q605.5156,263.4219 606.6094,262.8047 Q607.7031,262.1875 608.9375,262.1875 Q609.6719,262.1875 610.3203,262.3516 Q610.9688,262.5156 611.5156,262.875 Z "/><text fill="#000000" font-family="sans-serif" font-size="12" lengthAdjust="spacingAndGlyphs" textLength="76" x="629.25" y="271.9102">ProposalView</text><line style="stroke: #A80036; stroke-width: 1.5;" x1="552" x2="750" y1="283" y2="283"/><line style="stroke: #A80036; stroke-width: 1.5;" x1="552" x2="750" y1="291" y2="291"/><polygon fill="#4177AF" points="562,299.418,558,305.418,566,305.418" style="stroke: #1963A0; stroke-width: 1.0;"/><text fill="#000000" font-family="sans-serif" font-size="11" lengthAdjust="spacingAndGlyphs" textLength="76" x="571" y="306.4189">ProposalView()</text><rect fill="#F24D5C" height="6" style="stroke: #C82930; stroke-width: 1.0;" width="6" x="559" y="314.2539"/><text fill="#000000" font-family="sans-serif" font-size="11" lengthAdjust="spacingAndGlyphs" textLength="174" x="571" y="320.2549">proposeCombination(int[], Game): int</text><polygon fill="#4177AF" points="562,327.0898,558,333.0898,566,333.0898" style="stroke: #1963A0; stroke-width: 1.0;"/><text fill="#000000" font-family="sans-serif" font-size="11" lengthAdjust="spacingAndGlyphs" textLength="116" x="571" y="334.0908">interact(Game): boolean</text><!--class mastermind.views.SecretCombinationView--><rect fill="#FEFECE" filter="url(#fre11mcoo5udx)" height="75.6719" id="mastermind.views.SecretCombinationView" style="stroke: #A80036; stroke-width: 1.5;" width="164" x="326" y="435.5"/><ellipse cx="341" cy="451.5" fill="#ADD1B2" rx="11" ry="11" style="stroke: #A80036; stroke-width: 1.0;"/><path d="M343.7656,447.375 Q343.9219,447.1563 344.1094,447.0469 Q344.2969,446.9375 344.5156,446.9375 Q344.8906,446.9375 345.125,447.1953 Q345.3594,447.4531 345.3594,448.0625 L345.3594,449.5156 Q345.3594,450.125 345.125,450.3906 Q344.8906,450.6563 344.5156,450.6563 Q344.1719,450.6563 343.9688,450.4531 Q343.7656,450.2656 343.6563,449.75 Q343.6094,449.3906 343.4219,449.2031 Q343.0938,448.8281 342.4844,448.6094 Q341.875,448.3906 341.25,448.3906 Q340.4844,448.3906 339.8516,448.7188 Q339.2188,449.0469 338.7266,449.7969 Q338.2344,450.5469 338.2344,451.5781 L338.2344,452.6719 Q338.2344,453.9063 339.125,454.7266 Q340.0156,455.5469 341.6094,455.5469 Q342.5469,455.5469 343.2031,455.2969 Q343.5938,455.1406 344.0156,454.7031 Q344.2813,454.4375 344.4297,454.3594 Q344.5781,454.2813 344.7813,454.2813 Q345.1094,454.2813 345.3672,454.5391 Q345.625,454.7969 345.625,455.1406 Q345.625,455.4844 345.2813,455.8906 Q344.7813,456.4688 343.9844,456.7969 Q342.9063,457.25 341.6094,457.25 Q340.0938,457.25 338.8906,456.625 Q337.9063,456.125 337.2188,455.0547 Q336.5313,453.9844 336.5313,452.7031 L336.5313,451.5469 Q336.5313,450.2188 337.1484,449.0703 Q337.7656,447.9219 338.8594,447.3047 Q339.9531,446.6875 341.1875,446.6875 Q341.9219,446.6875 342.5703,446.8516 Q343.2188,447.0156 343.7656,447.375 Z "/><text fill="#000000" font-family="sans-serif" font-size="12" lengthAdjust="spacingAndGlyphs" textLength="132" x="355" y="456.4102">SecretCombinationView</text><line style="stroke: #A80036; stroke-width: 1.5;" x1="327" x2="489" y1="467.5" y2="467.5"/><line style="stroke: #A80036; stroke-width: 1.5;" x1="327" x2="489" y1="475.5" y2="475.5"/><polygon fill="#4177AF" points="337,483.918,333,489.918,341,489.918" style="stroke: #1963A0; stroke-width: 1.0;"/><text fill="#000000" font-family="sans-serif" font-size="11" lengthAdjust="spacingAndGlyphs" textLength="124" x="346" y="490.9189">SecretCombinationView()</text><polygon fill="#4177AF" points="337,497.7539,333,503.7539,341,503.7539" style="stroke: #1963A0; stroke-width: 1.0;"/><text fill="#000000" font-family="sans-serif" font-size="11" lengthAdjust="spacingAndGlyphs" textLength="78" x="346" y="504.7549">writeln(int): void</text><!--class mastermind.views.ProposedCombinationView--><rect fill="#FEFECE" filter="url(#fre11mcoo5udx)" height="103.3438" id="mastermind.views.ProposedCombinationView" style="stroke: #A80036; stroke-width: 1.5;" width="183" x="895.5" y="422"/><ellipse cx="910.5" cy="438" fill="#ADD1B2" rx="11" ry="11" style="stroke: #A80036; stroke-width: 1.0;"/><path d="M913.2656,433.875 Q913.4219,433.6563 913.6094,433.5469 Q913.7969,433.4375 914.0156,433.4375 Q914.3906,433.4375 914.625,433.6953 Q914.8594,433.9531 914.8594,434.5625 L914.8594,436.0156 Q914.8594,436.625 914.625,436.8906 Q914.3906,437.1563 914.0156,437.1563 Q913.6719,437.1563 913.4688,436.9531 Q913.2656,436.7656 913.1563,436.25 Q913.1094,435.8906 912.9219,435.7031 Q912.5938,435.3281 911.9844,435.1094 Q911.375,434.8906 910.75,434.8906 Q909.9844,434.8906 909.3516,435.2188 Q908.7188,435.5469 908.2266,436.2969 Q907.7344,437.0469 907.7344,438.0781 L907.7344,439.1719 Q907.7344,440.4063 908.625,441.2266 Q909.5156,442.0469 911.1094,442.0469 Q912.0469,442.0469 912.7031,441.7969 Q913.0938,441.6406 913.5156,441.2031 Q913.7813,440.9375 913.9297,440.8594 Q914.0781,440.7813 914.2813,440.7813 Q914.6094,440.7813 914.8672,441.0391 Q915.125,441.2969 915.125,441.6406 Q915.125,441.9844 914.7813,442.3906 Q914.2813,442.9688 913.4844,443.2969 Q912.4063,443.75 911.1094,443.75 Q909.5938,443.75 908.3906,443.125 Q907.4063,442.625 906.7188,441.5547 Q906.0313,440.4844 906.0313,439.2031 L906.0313,438.0469 Q906.0313,436.7188 906.6484,435.5703 Q907.2656,434.4219 908.3594,433.8047 Q909.4531,433.1875 910.6875,433.1875 Q911.4219,433.1875 912.0703,433.3516 Q912.7188,433.5156 913.2656,433.875 Z "/><text fill="#000000" font-family="sans-serif" font-size="12" lengthAdjust="spacingAndGlyphs" textLength="151" x="924.5" y="442.9102">ProposedCombinationView</text><line style="stroke: #A80036; stroke-width: 1.5;" x1="896.5" x2="1077.5" y1="454" y2="454"/><rect fill="none" height="6" style="stroke: #C82930; stroke-width: 1.0;" width="6" x="903.5" y="463.418"/><text fill="#000000" font-family="sans-serif" font-size="11" lengthAdjust="spacingAndGlyphs" text-decoration="underline" textLength="86" x="915.5" y="469.4189">ERROR_CODE: int</text><line style="stroke: #A80036; stroke-width: 1.5;" x1="896.5" x2="1077.5" y1="475.8359" y2="475.8359"/><polygon fill="#4177AF" points="906.5,484.2539,902.5,490.2539,910.5,490.2539" style="stroke: #1963A0; stroke-width: 1.0;"/><text fill="#000000" font-family="sans-serif" font-size="11" lengthAdjust="spacingAndGlyphs" textLength="138" x="915.5" y="491.2549">ProposedCombinationView()</text><polygon fill="#4177AF" points="906.5,498.0898,902.5,504.0898,910.5,504.0898" style="stroke: #1963A0; stroke-width: 1.0;"/><text fill="#000000" font-family="sans-serif" font-size="11" lengthAdjust="spacingAndGlyphs" textLength="76" x="915.5" y="505.0908">write(int[]): void</text><polygon fill="#4177AF" points="906.5,511.9258,902.5,517.9258,910.5,517.9258" style="stroke: #1963A0; stroke-width: 1.0;"/><text fill="#000000" font-family="sans-serif" font-size="11" lengthAdjust="spacingAndGlyphs" textLength="53" x="915.5" y="518.9268">read(): int[]</text><!--class mastermind.views.ResultView--><rect fill="#FEFECE" filter="url(#fre11mcoo5udx)" height="75.6719" id="mastermind.views.ResultView" style="stroke: #A80036; stroke-width: 1.5;" width="110" x="525" y="435.5"/><ellipse cx="547.2" cy="451.5" fill="#ADD1B2" rx="11" ry="11" style="stroke: #A80036; stroke-width: 1.0;"/><path d="M549.9656,447.375 Q550.1219,447.1563 550.3094,447.0469 Q550.4969,446.9375 550.7156,446.9375 Q551.0906,446.9375 551.325,447.1953 Q551.5594,447.4531 551.5594,448.0625 L551.5594,449.5156 Q551.5594,450.125 551.325,450.3906 Q551.0906,450.6563 550.7156,450.6563 Q550.3719,450.6563 550.1688,450.4531 Q549.9656,450.2656 549.8563,449.75 Q549.8094,449.3906 549.6219,449.2031 Q549.2938,448.8281 548.6844,448.6094 Q548.075,448.3906 547.45,448.3906 Q546.6844,448.3906 546.0516,448.7188 Q545.4188,449.0469 544.9266,449.7969 Q544.4344,450.5469 544.4344,451.5781 L544.4344,452.6719 Q544.4344,453.9063 545.325,454.7266 Q546.2156,455.5469 547.8094,455.5469 Q548.7469,455.5469 549.4031,455.2969 Q549.7938,455.1406 550.2156,454.7031 Q550.4813,454.4375 550.6297,454.3594 Q550.7781,454.2813 550.9813,454.2813 Q551.3094,454.2813 551.5672,454.5391 Q551.825,454.7969 551.825,455.1406 Q551.825,455.4844 551.4813,455.8906 Q550.9813,456.4688 550.1844,456.7969 Q549.1063,457.25 547.8094,457.25 Q546.2938,457.25 545.0906,456.625 Q544.1063,456.125 543.4188,455.0547 Q542.7313,453.9844 542.7313,452.7031 L542.7313,451.5469 Q542.7313,450.2188 543.3484,449.0703 Q543.9656,447.9219 545.0594,447.3047 Q546.1531,446.6875 547.3875,446.6875 Q548.1219,446.6875 548.7703,446.8516 Q549.4188,447.0156 549.9656,447.375 Z "/><text fill="#000000" font-family="sans-serif" font-size="12" lengthAdjust="spacingAndGlyphs" textLength="62" x="562.8" y="456.4102">ResultView</text><line style="stroke: #A80036; stroke-width: 1.5;" x1="526" x2="634" y1="467.5" y2="467.5"/><line style="stroke: #A80036; stroke-width: 1.5;" x1="526" x2="634" y1="475.5" y2="475.5"/><polygon fill="#4177AF" points="536,483.918,532,489.918,540,489.918" style="stroke: #1963A0; stroke-width: 1.0;"/><text fill="#000000" font-family="sans-serif" font-size="11" lengthAdjust="spacingAndGlyphs" textLength="64" x="545" y="490.9189">ResultView()</text><polygon fill="#4177AF" points="536,497.7539,532,503.7539,540,503.7539" style="stroke: #1963A0; stroke-width: 1.0;"/><text fill="#000000" font-family="sans-serif" font-size="11" lengthAdjust="spacingAndGlyphs" textLength="84" x="545" y="504.7549">writeln(int[]): void</text><!--class mastermind.views.ResumeView--><rect fill="#FEFECE" filter="url(#fre11mcoo5udx)" height="75.6719" id="mastermind.views.ResumeView" style="stroke: #A80036; stroke-width: 1.5;" width="142" x="215" y="258"/><ellipse cx="246.2" cy="274" fill="#ADD1B2" rx="11" ry="11" style="stroke: #A80036; stroke-width: 1.0;"/><path d="M248.9656,269.875 Q249.1219,269.6563 249.3094,269.5469 Q249.4969,269.4375 249.7156,269.4375 Q250.0906,269.4375 250.325,269.6953 Q250.5594,269.9531 250.5594,270.5625 L250.5594,272.0156 Q250.5594,272.625 250.325,272.8906 Q250.0906,273.1563 249.7156,273.1563 Q249.3719,273.1563 249.1688,272.9531 Q248.9656,272.7656 248.8563,272.25 Q248.8094,271.8906 248.6219,271.7031 Q248.2938,271.3281 247.6844,271.1094 Q247.075,270.8906 246.45,270.8906 Q245.6844,270.8906 245.0516,271.2188 Q244.4188,271.5469 243.9266,272.2969 Q243.4344,273.0469 243.4344,274.0781 L243.4344,275.1719 Q243.4344,276.4063 244.325,277.2266 Q245.2156,278.0469 246.8094,278.0469 Q247.7469,278.0469 248.4031,277.7969 Q248.7938,277.6406 249.2156,277.2031 Q249.4813,276.9375 249.6297,276.8594 Q249.7781,276.7813 249.9813,276.7813 Q250.3094,276.7813 250.5672,277.0391 Q250.825,277.2969 250.825,277.6406 Q250.825,277.9844 250.4813,278.3906 Q249.9813,278.9688 249.1844,279.2969 Q248.1063,279.75 246.8094,279.75 Q245.2938,279.75 244.0906,279.125 Q243.1063,278.625 242.4188,277.5547 Q241.7313,276.4844 241.7313,275.2031 L241.7313,274.0469 Q241.7313,272.7188 242.3484,271.5703 Q242.9656,270.4219 244.0594,269.8047 Q245.1531,269.1875 246.3875,269.1875 Q247.1219,269.1875 247.7703,269.3516 Q248.4188,269.5156 248.9656,269.875 Z "/><text fill="#000000" font-family="sans-serif" font-size="12" lengthAdjust="spacingAndGlyphs" textLength="74" x="263.8" y="278.9102">ResumeView</text><line style="stroke: #A80036; stroke-width: 1.5;" x1="216" x2="356" y1="290" y2="290"/><line style="stroke: #A80036; stroke-width: 1.5;" x1="216" x2="356" y1="298" y2="298"/><polygon fill="#4177AF" points="226,306.418,222,312.418,230,312.418" style="stroke: #1963A0; stroke-width: 1.0;"/><text fill="#000000" font-family="sans-serif" font-size="11" lengthAdjust="spacingAndGlyphs" textLength="73" x="235" y="313.4189">ResumeView()</text><polygon fill="#4177AF" points="226,320.2539,222,326.2539,230,326.2539" style="stroke: #1963A0; stroke-width: 1.0;"/><text fill="#000000" font-family="sans-serif" font-size="11" lengthAdjust="spacingAndGlyphs" textLength="116" x="235" y="327.2549">interact(Game): boolean</text><!--class mastermind.views.StartView--><rect fill="#FEFECE" filter="url(#fre11mcoo5udx)" height="75.6719" id="mastermind.views.StartView" style="stroke: #A80036; stroke-width: 1.5;" width="124" x="392" y="258"/><ellipse cx="425.45" cy="274" fill="#ADD1B2" rx="11" ry="11" style="stroke: #A80036; stroke-width: 1.0;"/><path d="M428.2156,269.875 Q428.3719,269.6563 428.5594,269.5469 Q428.7469,269.4375 428.9656,269.4375 Q429.3406,269.4375 429.575,269.6953 Q429.8094,269.9531 429.8094,270.5625 L429.8094,272.0156 Q429.8094,272.625 429.575,272.8906 Q429.3406,273.1563 428.9656,273.1563 Q428.6219,273.1563 428.4188,272.9531 Q428.2156,272.7656 428.1063,272.25 Q428.0594,271.8906 427.8719,271.7031 Q427.5438,271.3281 426.9344,271.1094 Q426.325,270.8906 425.7,270.8906 Q424.9344,270.8906 424.3016,271.2188 Q423.6688,271.5469 423.1766,272.2969 Q422.6844,273.0469 422.6844,274.0781 L422.6844,275.1719 Q422.6844,276.4063 423.575,277.2266 Q424.4656,278.0469 426.0594,278.0469 Q426.9969,278.0469 427.6531,277.7969 Q428.0438,277.6406 428.4656,277.2031 Q428.7313,276.9375 428.8797,276.8594 Q429.0281,276.7813 429.2313,276.7813 Q429.5594,276.7813 429.8172,277.0391 Q430.075,277.2969 430.075,277.6406 Q430.075,277.9844 429.7313,278.3906 Q429.2313,278.9688 428.4344,279.2969 Q427.3563,279.75 426.0594,279.75 Q424.5438,279.75 423.3406,279.125 Q422.3563,278.625 421.6688,277.5547 Q420.9813,276.4844 420.9813,275.2031 L420.9813,274.0469 Q420.9813,272.7188 421.5984,271.5703 Q422.2156,270.4219 423.3094,269.8047 Q424.4031,269.1875 425.6375,269.1875 Q426.3719,269.1875 427.0203,269.3516 Q427.6688,269.5156 428.2156,269.875 Z "/><text fill="#000000" font-family="sans-serif" font-size="12" lengthAdjust="spacingAndGlyphs" textLength="51" x="443.55" y="278.9102">StartView</text><line style="stroke: #A80036; stroke-width: 1.5;" x1="393" x2="515" y1="290" y2="290"/><line style="stroke: #A80036; stroke-width: 1.5;" x1="393" x2="515" y1="298" y2="298"/><polygon fill="#4177AF" points="403,306.418,399,312.418,407,312.418" style="stroke: #1963A0; stroke-width: 1.0;"/><text fill="#000000" font-family="sans-serif" font-size="11" lengthAdjust="spacingAndGlyphs" textLength="57" x="412" y="313.4189">StartView()</text><polygon fill="#4177AF" points="403,320.2539,399,326.2539,407,326.2539" style="stroke: #1963A0; stroke-width: 1.0;"/><text fill="#000000" font-family="sans-serif" font-size="11" lengthAdjust="spacingAndGlyphs" textLength="98" x="412" y="327.2549">interact(Game): void</text><!--class mastermind.views.View--><rect fill="#FEFECE" filter="url(#fre11mcoo5udx)" height="131.0156" id="mastermind.views.View" style="stroke: #A80036; stroke-width: 1.5;" width="168" x="292" y="60"/><ellipse cx="358.75" cy="76" fill="#ADD1B2" rx="11" ry="11" style="stroke: #A80036; stroke-width: 1.0;"/><path d="M361.5156,71.875 Q361.6719,71.6563 361.8594,71.5469 Q362.0469,71.4375 362.2656,71.4375 Q362.6406,71.4375 362.875,71.6953 Q363.1094,71.9531 363.1094,72.5625 L363.1094,74.0156 Q363.1094,74.625 362.875,74.8906 Q362.6406,75.1563 362.2656,75.1563 Q361.9219,75.1563 361.7188,74.9531 Q361.5156,74.7656 361.4063,74.25 Q361.3594,73.8906 361.1719,73.7031 Q360.8438,73.3281 360.2344,73.1094 Q359.625,72.8906 359,72.8906 Q358.2344,72.8906 357.6016,73.2188 Q356.9688,73.5469 356.4766,74.2969 Q355.9844,75.0469 355.9844,76.0781 L355.9844,77.1719 Q355.9844,78.4063 356.875,79.2266 Q357.7656,80.0469 359.3594,80.0469 Q360.2969,80.0469 360.9531,79.7969 Q361.3438,79.6406 361.7656,79.2031 Q362.0313,78.9375 362.1797,78.8594 Q362.3281,78.7813 362.5313,78.7813 Q362.8594,78.7813 363.1172,79.0391 Q363.375,79.2969 363.375,79.6406 Q363.375,79.9844 363.0313,80.3906 Q362.5313,80.9688 361.7344,81.2969 Q360.6563,81.75 359.3594,81.75 Q357.8438,81.75 356.6406,81.125 Q355.6563,80.625 354.9688,79.5547 Q354.2813,78.4844 354.2813,77.2031 L354.2813,76.0469 Q354.2813,74.7188 354.8984,73.5703 Q355.5156,72.4219 356.6094,71.8047 Q357.7031,71.1875 358.9375,71.1875 Q359.6719,71.1875 360.3203,71.3516 Q360.9688,71.5156 361.5156,71.875 Z "/><text fill="#000000" font-family="sans-serif" font-size="12" lengthAdjust="spacingAndGlyphs" textLength="26" x="379.25" y="80.9102">View</text><line style="stroke: #A80036; stroke-width: 1.5;" x1="293" x2="459" y1="92" y2="92"/><polygon fill="none" points="303,99.418,307,103.418,303,107.418,299,103.418" style="stroke: #B38D22; stroke-width: 1.0;"/><text fill="#000000" font-family="sans-serif" font-size="11" lengthAdjust="spacingAndGlyphs" textLength="60" x="312" y="107.4189">game: Game</text><rect fill="none" height="6" style="stroke: #C82930; stroke-width: 1.0;" width="6" x="300" y="115.2539"/><text fill="#000000" font-family="sans-serif" font-size="11" lengthAdjust="spacingAndGlyphs" textLength="103" x="312" y="121.2549">startView: StartView</text><rect fill="none" height="6" style="stroke: #C82930; stroke-width: 1.0;" width="6" x="300" y="129.0898"/><text fill="#000000" font-family="sans-serif" font-size="11" lengthAdjust="spacingAndGlyphs" textLength="142" x="312" y="135.0908">proposalView: ProposalView</text><rect fill="none" height="6" style="stroke: #C82930; stroke-width: 1.0;" width="6" x="300" y="142.9258"/><text fill="#000000" font-family="sans-serif" font-size="11" lengthAdjust="spacingAndGlyphs" textLength="133" x="312" y="148.9268">resumeView: ResumeView</text><line style="stroke: #A80036; stroke-width: 1.5;" x1="293" x2="459" y1="155.3438" y2="155.3438"/><ellipse cx="303" cy="167.7617" fill="#84BE84" rx="3" ry="3" style="stroke: #038048; stroke-width: 1.0;"/><text fill="#000000" font-family="sans-serif" font-size="11" lengthAdjust="spacingAndGlyphs" textLength="62" x="312" y="170.7627">View(Game)</text><ellipse cx="303" cy="181.5977" fill="#84BE84" rx="3" ry="3" style="stroke: #038048; stroke-width: 1.0;"/><text fill="#000000" font-family="sans-serif" font-size="11" lengthAdjust="spacingAndGlyphs" textLength="70" x="312" y="184.5986">interact(): void</text><!--class mastermind.utils.WithConsoleView--><rect fill="#FEFECE" filter="url(#fre11mcoo5udx)" height="48" id="mastermind.utils.WithConsoleView" style="stroke: #A80036; stroke-width: 1.5;" width="129" x="1135.5" y="101.5"/><ellipse cx="1150.5" cy="117.5" fill="#ADD1B2" rx="11" ry="11" style="stroke: #A80036; stroke-width: 1.0;"/><path d="M1153.2656,113.375 Q1153.4219,113.1563 1153.6094,113.0469 Q1153.7969,112.9375 1154.0156,112.9375 Q1154.3906,112.9375 1154.625,113.1953 Q1154.8594,113.4531 1154.8594,114.0625 L1154.8594,115.5156 Q1154.8594,116.125 1154.625,116.3906 Q1154.3906,116.6563 1154.0156,116.6563 Q1153.6719,116.6563 1153.4688,116.4531 Q1153.2656,116.2656 1153.1563,115.75 Q1153.1094,115.3906 1152.9219,115.2031 Q1152.5938,114.8281 1151.9844,114.6094 Q1151.375,114.3906 1150.75,114.3906 Q1149.9844,114.3906 1149.3516,114.7188 Q1148.7188,115.0469 1148.2266,115.7969 Q1147.7344,116.5469 1147.7344,117.5781 L1147.7344,118.6719 Q1147.7344,119.9063 1148.625,120.7266 Q1149.5156,121.5469 1151.1094,121.5469 Q1152.0469,121.5469 1152.7031,121.2969 Q1153.0938,121.1406 1153.5156,120.7031 Q1153.7813,120.4375 1153.9297,120.3594 Q1154.0781,120.2813 1154.2813,120.2813 Q1154.6094,120.2813 1154.8672,120.5391 Q1155.125,120.7969 1155.125,121.1406 Q1155.125,121.4844 1154.7813,121.8906 Q1154.2813,122.4688 1153.4844,122.7969 Q1152.4063,123.25 1151.1094,123.25 Q1149.5938,123.25 1148.3906,122.625 Q1147.4063,122.125 1146.7188,121.0547 Q1146.0313,119.9844 1146.0313,118.7031 L1146.0313,117.5469 Q1146.0313,116.2188 1146.6484,115.0703 Q1147.2656,113.9219 1148.3594,113.3047 Q1149.4531,112.6875 1150.6875,112.6875 Q1151.4219,112.6875 1152.0703,112.8516 Q1152.7188,113.0156 1153.2656,113.375 Z "/><text fill="#000000" font-family="sans-serif" font-size="12" lengthAdjust="spacingAndGlyphs" textLength="97" x="1164.5" y="122.4102">WithConsoleView</text><line style="stroke: #A80036; stroke-width: 1.5;" x1="1136.5" x2="1263.5" y1="133.5" y2="133.5"/><line style="stroke: #A80036; stroke-width: 1.5;" x1="1136.5" x2="1263.5" y1="141.5" y2="141.5"/><!--class mastermind.models.Game--><rect fill="#FEFECE" filter="url(#fre11mcoo5udx)" height="48" id="mastermind.models.Game" style="stroke: #A80036; stroke-width: 1.5;" width="66" x="93" y="449.5"/><ellipse cx="108" cy="465.5" fill="#ADD1B2" rx="11" ry="11" style="stroke: #A80036; stroke-width: 1.0;"/><path d="M110.7656,461.375 Q110.9219,461.1563 111.1094,461.0469 Q111.2969,460.9375 111.5156,460.9375 Q111.8906,460.9375 112.125,461.1953 Q112.3594,461.4531 112.3594,462.0625 L112.3594,463.5156 Q112.3594,464.125 112.125,464.3906 Q111.8906,464.6563 111.5156,464.6563 Q111.1719,464.6563 110.9688,464.4531 Q110.7656,464.2656 110.6563,463.75 Q110.6094,463.3906 110.4219,463.2031 Q110.0938,462.8281 109.4844,462.6094 Q108.875,462.3906 108.25,462.3906 Q107.4844,462.3906 106.8516,462.7188 Q106.2188,463.0469 105.7266,463.7969 Q105.2344,464.5469 105.2344,465.5781 L105.2344,466.6719 Q105.2344,467.9063 106.125,468.7266 Q107.0156,469.5469 108.6094,469.5469 Q109.5469,469.5469 110.2031,469.2969 Q110.5938,469.1406 111.0156,468.7031 Q111.2813,468.4375 111.4297,468.3594 Q111.5781,468.2813 111.7813,468.2813 Q112.1094,468.2813 112.3672,468.5391 Q112.625,468.7969 112.625,469.1406 Q112.625,469.4844 112.2813,469.8906 Q111.7813,470.4688 110.9844,470.7969 Q109.9063,471.25 108.6094,471.25 Q107.0938,471.25 105.8906,470.625 Q104.9063,470.125 104.2188,469.0547 Q103.5313,467.9844 103.5313,466.7031 L103.5313,465.5469 Q103.5313,464.2188 104.1484,463.0703 Q104.7656,461.9219 105.8594,461.3047 Q106.9531,460.6875 108.1875,460.6875 Q108.9219,460.6875 109.5703,460.8516 Q110.2188,461.0156 110.7656,461.375 Z "/><text fill="#000000" font-family="sans-serif" font-size="12" lengthAdjust="spacingAndGlyphs" textLength="34" x="122" y="470.4102">Game</text><line style="stroke: #A80036; stroke-width: 1.5;" x1="94" x2="158" y1="481.5" y2="481.5"/><line style="stroke: #A80036; stroke-width: 1.5;" x1="94" x2="158" y1="489.5" y2="489.5"/><!--link mastermind.views.Color to mastermind.views.Color--><path d="M942.675,674.157 C962.415,676.371 977.5,691.652 977.5,720 C977.5,745.912 964.896,760.906 947.655,764.983 " fill="none" id="mastermind.views.Color-mastermind.views.Color" style="stroke: #A80036; stroke-width: 1.0; stroke-dasharray: 7.0,7.0;"/><polygon fill="#A80036" points="942.675,765.843,952.2248,768.2518,947.602,764.9915,950.8623,760.3687,942.675,765.843" style="stroke: #A80036; stroke-width: 1.0;"/><!--link mastermind.views.Error to mastermind.views.Error--><path d="M842.194,441.189 C862.241,443.909 877,454.68 877,473.5 C877,490.703 864.669,501.18 847.239,504.931 " fill="none" id="mastermind.views.Error-mastermind.views.Error" style="stroke: #A80036; stroke-width: 1.0; stroke-dasharray: 7.0,7.0;"/><polygon fill="#A80036" points="842.194,505.811,851.7472,508.2062,847.1197,504.9524,850.3735,500.325,842.194,505.811" style="stroke: #A80036; stroke-width: 1.0;"/><!--link mastermind.views.Error to mastermind.views.Color--><path d="M789.727,546.206 C797.853,563.483 806.748,582.394 815.577,601.166 " fill="none" id="mastermind.views.Error-mastermind.views.Color" style="stroke: #A80036; stroke-width: 1.0; stroke-dasharray: 7.0,7.0;"/><polygon fill="#A80036" points="817.82,605.935,817.608,596.0884,815.6914,601.4107,810.3691,599.4941,817.82,605.935" style="stroke: #A80036; stroke-width: 1.0;"/><!--link mastermind.views.Message to mastermind.views.Message--><path d="M467.588,675.852 C487.985,680.9 502.5,695.616 502.5,720 C502.5,742.288 490.373,756.499 472.711,762.632 " fill="none" id="mastermind.views.Message-mastermind.views.Message" style="stroke: #A80036; stroke-width: 1.0; stroke-dasharray: 7.0,7.0;"/><polygon fill="#A80036" points="467.588,764.148,477.3531,765.4301,472.3825,762.7294,475.0832,757.7588,467.588,764.148" style="stroke: #A80036; stroke-width: 1.0;"/><!--link mastermind.utils.WithConsoleView to mastermind.views.ProposalView--><path d="M1151.52,160.771 C1134.31,171.705 1114.38,183.022 1095,191 C1033.59,216.275 862.018,253.082 751.021,275.455 " fill="none" id="mastermind.utils.WithConsoleView-mastermind.views.ProposalView" style="stroke: #A80036; stroke-width: 1.0;"/><polygon fill="none" points="1147.79,154.845,1168.34,149.673,1155.5,166.53,1147.79,154.845" style="stroke: #A80036; stroke-width: 1.0;"/><!--link mastermind.views.ProposalView to mastermind.models.Game--><path d="M550.977,335.688 C544.929,337.593 538.904,339.383 533,341 C387.537,380.84 333.028,331.839 199,401 C178.363,411.649 159.743,430.103 146.474,445.596 " fill="none" id="mastermind.views.ProposalView-mastermind.models.Game" style="stroke: #A80036; stroke-width: 1.0; stroke-dasharray: 7.0,7.0;"/><polygon fill="#A80036" points="143.218,449.464,152.0738,445.1541,146.4377,445.6386,145.9532,440.0026,143.218,449.464" style="stroke: #A80036; stroke-width: 1.0;"/><!--link mastermind.views.ProposalView to mastermind.views.Message--><path d="M550.805,335.109 C544.801,337.16 538.832,339.14 533,341 C434.4,372.449 371.053,318.93 308,401 C268.738,452.104 297.954,482.343 308,546 C311.212,566.352 316.426,587.572 322.413,607.894 " fill="none" id="mastermind.views.ProposalView-mastermind.views.Message" style="stroke: #A80036; stroke-width: 1.0; stroke-dasharray: 7.0,7.0;"/><polygon fill="#A80036" points="323.867,612.763,325.1261,602.995,322.4371,607.9718,317.4602,605.2828,323.867,612.763" style="stroke: #A80036; stroke-width: 1.0;"/><!--link mastermind.views.ProposalView to mastermind.views.Error--><path d="M677.496,341.286 C687.465,357.949 699.108,377.409 710.327,396.162 " fill="none" id="mastermind.views.ProposalView-mastermind.views.Error" style="stroke: #A80036; stroke-width: 1.0; stroke-dasharray: 7.0,7.0;"/><polygon fill="#A80036" points="713.169,400.912,711.98,391.1352,710.6016,396.6215,705.1152,395.2431,713.169,400.912" style="stroke: #A80036; stroke-width: 1.0;"/><!--link mastermind.views.ProposalView to mastermind.views.SecretCombinationView--><path d="M589.994,341.06 C551.2,369.078 501.358,405.075 463.645,432.312 " fill="none" id="mastermind.views.ProposalView-mastermind.views.SecretCombinationView" style="stroke: #A80036; stroke-width: 1.0; stroke-dasharray: 7.0,7.0;"/><polygon fill="#A80036" points="459.572,435.253,469.21,433.2262,463.6254,432.3255,464.526,426.7408,459.572,435.253" style="stroke: #A80036; stroke-width: 1.0;"/><!--link mastermind.views.ProposalView to mastermind.views.ProposedCombinationView--><path d="M751.27,339.383 C791.053,357.165 836.812,378.845 877,401 C887.21,406.629 897.735,412.865 908.041,419.241 " fill="none" id="mastermind.views.ProposalView-mastermind.views.ProposedCombinationView" style="stroke: #A80036; stroke-width: 1.0; stroke-dasharray: 7.0,7.0;"/><polygon fill="#A80036" points="912.443,421.981,906.9154,413.8295,908.198,419.3391,902.6884,420.6216,912.443,421.981" style="stroke: #A80036; stroke-width: 1.0;"/><!--link mastermind.views.ProposalView to mastermind.views.ResultView--><path d="M633.084,341.286 C622.023,368.626 607.916,403.497 597.025,430.417 " fill="none" id="mastermind.views.ProposalView-mastermind.views.ResultView" style="stroke: #A80036; stroke-width: 1.0; stroke-dasharray: 7.0,7.0;"/><polygon fill="#A80036" points="595.03,435.348,602.1119,428.5035,596.9042,430.7125,594.6952,425.5048,595.03,435.348" style="stroke: #A80036; stroke-width: 1.0;"/><!--link mastermind.utils.WithConsoleView to mastermind.views.ProposedCombinationView--><path d="M1175.05,167.034 C1136.02,230.422 1060.63,352.892 1018.12,421.949 " fill="none" id="mastermind.utils.WithConsoleView-mastermind.views.ProposedCombinationView" style="stroke: #A80036; stroke-width: 1.0;"/><polygon fill="none" points="1169.25,163.101,1185.69,149.739,1181.17,170.44,1169.25,163.101" style="stroke: #A80036; stroke-width: 1.0;"/><!--link mastermind.views.ProposedCombinationView to mastermind.views.Message--><path d="M914.829,525.034 C902.507,532.6 889.608,539.897 877,546 C743.13,610.801 578.753,661.591 472.731,690.932 " fill="none" id="mastermind.views.ProposedCombinationView-mastermind.views.Message" style="stroke: #A80036; stroke-width: 1.0; stroke-dasharray: 7.0,7.0;"/><polygon fill="#A80036" points="467.726,692.313,477.4657,693.775,472.5459,690.983,475.3378,686.0632,467.726,692.313" style="stroke: #A80036; stroke-width: 1.0;"/><!--link mastermind.views.ProposedCombinationView to mastermind.views.Color--><path d="M962.965,525.161 C952.426,547.374 939.577,574.457 926.864,601.251 " fill="none" id="mastermind.views.ProposedCombinationView-mastermind.views.Color" style="stroke: #A80036; stroke-width: 1.0; stroke-dasharray: 7.0,7.0;"/><polygon fill="#A80036" points="924.66,605.898,932.1314,599.481,926.803,601.3805,924.9034,596.0522,924.66,605.898" style="stroke: #A80036; stroke-width: 1.0;"/><!--link mastermind.utils.WithConsoleView to mastermind.views.ResultView--><path d="M1158.74,163.447 C1093.41,221.653 971.057,329.321 947,341 C826.637,399.43 769.971,337.881 652,401 C636.156,409.477 621.508,422.55 609.618,435.21 " fill="none" id="mastermind.utils.WithConsoleView-mastermind.views.ResultView" style="stroke: #A80036; stroke-width: 1.0;"/><polygon fill="none" points="1154.45,157.898,1174.03,149.803,1163.77,168.343,1154.45,157.898" style="stroke: #A80036; stroke-width: 1.0;"/><!--link mastermind.views.ResultView to mastermind.views.Message--><path d="M547.194,511.634 C524.136,537.735 491.999,574.113 461.07,609.122 " fill="none" id="mastermind.views.ResultView-mastermind.views.Message" style="stroke: #A80036; stroke-width: 1.0; stroke-dasharray: 7.0,7.0;"/><polygon fill="#A80036" points="457.694,612.943,466.6502,608.8459,461.0042,609.1956,460.6545,603.5496,457.694,612.943" style="stroke: #A80036; stroke-width: 1.0;"/><!--link mastermind.views.ResumeView to mastermind.models.Game--><path d="M252.068,334.219 C221.693,367.537 177.876,415.598 150.71,445.397 " fill="none" id="mastermind.views.ResumeView-mastermind.models.Game" style="stroke: #A80036; stroke-width: 1.0; stroke-dasharray: 7.0,7.0;"/><polygon fill="#A80036" points="147.154,449.297,156.173,445.34,150.5222,445.6017,150.2605,439.9509,147.154,449.297" style="stroke: #A80036; stroke-width: 1.0;"/><!--link mastermind.views.ResumeView to mastermind.views.Message--><path d="M266.807,334.448 C257.964,353.777 248.457,378.062 244,401 C231.708,464.261 224.757,484.496 244,546 C250.697,567.405 261.078,588.488 272.991,608.174 " fill="none" id="mastermind.views.ResumeView-mastermind.views.Message" style="stroke: #A80036; stroke-width: 1.0; stroke-dasharray: 7.0,7.0;"/><polygon fill="#A80036" points="275.72,612.616,274.4171,602.8537,273.1027,608.3557,267.6007,607.0414,275.72,612.616" style="stroke: #A80036; stroke-width: 1.0;"/><!--link mastermind.utils.WithConsoleView to mastermind.views.SecretCombinationView--><path d="M1148.95,160.332 C1132.13,170.809 1113.08,181.963 1095,191 C1030.03,223.465 1009.15,221.022 943,251 C863.337,287.101 850.144,310.97 768,341 C656.21,381.868 615.402,351.845 507,401 C487.498,409.843 467.974,422.838 451.482,435.332 " fill="none" id="mastermind.utils.WithConsoleView-mastermind.views.SecretCombinationView" style="stroke: #A80036; stroke-width: 1.0;"/><polygon fill="none" points="1145.24,154.397,1165.87,149.569,1152.75,166.21,1145.24,154.397" style="stroke: #A80036; stroke-width: 1.0;"/><!--link mastermind.views.SecretCombinationView to mastermind.views.Message--><path d="M401.317,511.634 C396.677,537.418 390.233,573.23 384.003,607.846 " fill="none" id="mastermind.views.SecretCombinationView-mastermind.views.Message" style="stroke: #A80036; stroke-width: 1.0; stroke-dasharray: 7.0,7.0;"/><polygon fill="#A80036" points="383.086,612.943,388.6146,604.7923,383.9702,608.0218,380.7407,603.3775,383.086,612.943" style="stroke: #A80036; stroke-width: 1.0;"/><!--link mastermind.utils.WithConsoleView to mastermind.views.StartView--><path d="M1153.87,160.975 C1136.3,172.409 1115.55,183.994 1095,191 C857.244,272.068 772.432,175.025 533,251 C527.014,252.899 520.971,255.279 515.033,257.943 " fill="none" id="mastermind.utils.WithConsoleView-mastermind.views.StartView" style="stroke: #A80036; stroke-width: 1.0;"/><polygon fill="none" points="1150.11,155.065,1170.57,149.541,1158.02,166.617,1150.11,155.065" style="stroke: #A80036; stroke-width: 1.0;"/><!--link mastermind.views.StartView to mastermind.models.Game--><path d="M391.632,332.634 C385.738,335.597 379.798,338.435 374,341 C298.809,374.269 268.982,357.837 199,401 C179.816,412.832 161.693,430.531 148.303,445.36 " fill="none" id="mastermind.views.StartView-mastermind.models.Game" style="stroke: #A80036; stroke-width: 1.0; stroke-dasharray: 7.0,7.0;"/><polygon fill="#A80036" points="144.655,449.459,153.6269,445.3964,147.9796,445.7244,147.6515,440.0771,144.655,449.459" style="stroke: #A80036; stroke-width: 1.0;"/><!--link mastermind.views.StartView to mastermind.views.Message--><path d="M391.726,332.507 C343.467,360.326 284.246,395.262 281,401 C244.926,464.777 265.929,544.589 295.824,608.3 " fill="none" id="mastermind.views.StartView-mastermind.views.Message" style="stroke: #A80036; stroke-width: 1.0; stroke-dasharray: 7.0,7.0;"/><polygon fill="#A80036" points="297.991,612.859,297.7413,603.0133,295.8451,608.3429,290.5155,606.4467,297.991,612.859" style="stroke: #A80036; stroke-width: 1.0;"/><!--link mastermind.views.View to mastermind.views.ProposalView--><path d="M471.328,184.91 C502.688,204.125 537.288,225.326 567.684,243.95 " fill="none" id="mastermind.views.View-mastermind.views.ProposalView" style="stroke: #A80036; stroke-width: 1.0;"/><polygon fill="#A80036" points="579.112,250.952,573.5277,242.8393,574.8486,248.3398,569.3482,249.6607,579.112,250.952" style="stroke: #A80036; stroke-width: 1.0;"/><line style="stroke: #A80036; stroke-width: 1.0;" x1="574.8486" x2="568.027" y1="248.3398" y2="244.1605"/><polygon fill="#A80036" points="460.003,177.971,463.0297,184.5162,470.2355,184.2397,467.2088,177.6945,460.003,177.971" style="stroke: #A80036; stroke-width: 1.0;"/><!--link mastermind.views.View to mastermind.views.StartView--><path d="M411.483,203.153 C418.184,217.628 425.024,232.405 431.204,245.755 " fill="none" id="mastermind.views.View-mastermind.views.StartView" style="stroke: #A80036; stroke-width: 1.0;"/><polygon fill="#A80036" points="436.671,257.565,436.5199,247.7173,434.5704,253.0276,429.2601,251.0782,436.671,257.565" style="stroke: #A80036; stroke-width: 1.0;"/><line style="stroke: #A80036; stroke-width: 1.0;" x1="434.5704" x2="431.21" y1="253.0276" y2="245.7675"/><polygon fill="#A80036" points="405.934,191.165,404.8241,198.2902,410.9742,202.0552,412.0842,194.93,405.934,191.165" style="stroke: #A80036; stroke-width: 1.0;"/><!--link mastermind.views.View to mastermind.models.Game--><path d="M280.785,176.165 C250.434,195.95 219.047,221.18 197,251 C155.247,307.474 137.456,389.448 130.339,436.208 " fill="none" id="mastermind.views.View-mastermind.models.Game" style="stroke: #A80036; stroke-width: 1.0;"/><polygon fill="#A80036" points="128.495,449.245,133.7157,440.8937,129.195,444.2942,125.7944,439.7736,128.495,449.245" style="stroke: #A80036; stroke-width: 1.0;"/><line style="stroke: #A80036; stroke-width: 1.0;" x1="129.195" x2="130.316" y1="444.2942" y2="436.373"/><polygon fill="#A80036" points="291.9,169.123,284.6909,168.9547,281.7627,175.5445,288.9719,175.7128,291.9,169.123" style="stroke: #A80036; stroke-width: 1.0;"/><!--link mastermind.views.View to mastermind.views.ResumeView--><path d="M335.201,202.885 C327.435,217.424 319.501,232.279 312.334,245.697 " fill="none" id="mastermind.views.View-mastermind.views.ResumeView" style="stroke: #A80036; stroke-width: 1.0;"/><polygon fill="#A80036" points="305.995,257.565,313.7632,251.5106,308.3505,253.1546,306.7065,247.7419,305.995,257.565" style="stroke: #A80036; stroke-width: 1.0;"/><line style="stroke: #A80036; stroke-width: 1.0;" x1="308.3505" x2="312.1195" y1="253.1546" y2="246.0985"/><polygon fill="#A80036" points="341.461,191.165,335.1061,194.5731,335.8079,201.75,342.1628,198.3419,341.461,191.165" style="stroke: #A80036; stroke-width: 1.0;"/><!--
@startuml


class  mastermind.views.Color{
+ {static} RED: Color
+ {static} BLUE: Color
+ {static} YELLOW: Color
+ {static} GREEN: Color
+ {static} ORANGE: Color
+ {static} PURPLE: Color
- initial: char
- Color(char)
+ {static} valueOf(String): Color
~ {static} getInstance(char): Color
~ {static} getInstance(int): Color
~ {static} allInitials(): String
~ getInitial(): char
}
mastermind.views.Color ..> mastermind.views.Color

class  mastermind.views.Error{
+ {static} DUPLICATED: Error
+ {static} WRONG_CHARACTERS: Error
+ {static} WRONG_LENGTH: Error
- message: String
- Error(String)
+ {static} valueOf(String): Error
~ getMessage(): String
}
mastermind.views.Error ..> mastermind.views.Error
mastermind.views.Error ..> mastermind.views.Color

class  mastermind.views.Message{
+ {static} TURN: Message
+ {static} SECRET: Message
+ {static} RESUME: Message
+ {static} RESULT: Message
+ {static} PROPOSED_COMBINATION: Message
+ {static} TITLE: Message
+ {static} WINNER: Message
+ {static} LOOSER: Message
- message: String
- Message(String)
+ {static} valueOf(String): Message
~ getMessage(): String
}
mastermind.views.Message ..> mastermind.views.Message

class  mastermind.views.ProposalView{
~ ProposalView()
- proposeCombination(int[], Game): int
~ interact(Game): boolean
}
mastermind.utils.WithConsoleView <|-down- mastermind.views.ProposalView
mastermind.views.ProposalView ..> mastermind.models.Game
mastermind.views.ProposalView ..> mastermind.views.Message
mastermind.views.ProposalView ..> mastermind.views.Error
mastermind.views.ProposalView ..> mastermind.views.SecretCombinationView
mastermind.views.ProposalView ..> mastermind.views.ProposedCombinationView
mastermind.views.ProposalView ..> mastermind.views.ResultView

class  mastermind.views.ProposedCombinationView{
- {static} ERROR_CODE: int
~ ProposedCombinationView()
~ write(int[]): void
~ read(): int[]
}
mastermind.utils.WithConsoleView <|-down- mastermind.views.ProposedCombinationView
mastermind.views.ProposedCombinationView..> mastermind.views.Message
mastermind.views.ProposedCombinationView..> mastermind.views.Color


class  mastermind.views.ResultView{
~ ResultView()
~ writeln(int[]): void
}
mastermind.utils.WithConsoleView <|-down- mastermind.views.ResultView
mastermind.views.ResultView..> mastermind.views.Message

class  mastermind.views.ResumeView{
~ ResumeView()
~ interact(Game): boolean
}
mastermind.views.ResumeView ..> mastermind.models.Game
mastermind.views.ResumeView..> mastermind.views.Message

class  mastermind.views.SecretCombinationView{
~ SecretCombinationView()
~ writeln(int): void
}
mastermind.utils.WithConsoleView <|-down- mastermind.views.SecretCombinationView
mastermind.views.SecretCombinationView..> mastermind.views.Message

class  mastermind.views.StartView{
~ StartView()
~ interact(Game): void
}
mastermind.utils.WithConsoleView <|-down- mastermind.views.StartView
mastermind.views.StartView ..> mastermind.models.Game
mastermind.views.StartView..> mastermind.views.Message

class  mastermind.views.View{
# game: Game
- startView: StartView
- proposalView: ProposalView
- resumeView: ResumeView
+ View(Game)
+ interact(): void
}
mastermind.views.View *-down-> mastermind.views.ProposalView
mastermind.views.View *-down-> mastermind.views.StartView
mastermind.views.View *-down-> mastermind.models.Game
mastermind.views.View *-down-> mastermind.views.ResumeView

@enduml

PlantUML version 1.2019.05(Sat Apr 20 18:45:36 CEST 2019)
(GPL source distribution)
Java Runtime: OpenJDK Runtime Environment
JVM: OpenJDK 64-Bit Server VM
Java Version: 1.8.0_222-b10
Operating System: Windows 10
OS Version: 10.0
Default Encoding: windows-1252
Language: es
Country: ES
--></g></svg>