<?xml version="1.0" encoding="UTF-8" standalone="no"?><svg xmlns="http://www.w3.org/2000/svg" xmlns:xlink="http://www.w3.org/1999/xlink" contentScriptType="application/ecmascript" contentStyleType="text/css" height="548px" preserveAspectRatio="none" style="width:456px;height:548px;" version="1.1" viewBox="0 0 456 548" width="456px" zoomAndPan="magnify"><defs><filter height="300%" id="fq0djpo6u89wh" width="300%" x="-1" y="-1"><feGaussianBlur result="blurOut" stdDeviation="2.0"/><feColorMatrix in="blurOut" result="blurOut2" type="matrix" values="0 0 0 0 0 0 0 0 0 0 0 0 0 0 0 0 0 0 .4 0"/><feOffset dx="4.0" dy="4.0" in="blurOut2" result="blurOut3"/><feBlend in="SourceGraphic" in2="blurOut3" mode="normal"/></filter></defs><g><!--cluster mastermind.utils--><polygon fill="#FFFFFF" filter="url(#fq0djpo6u89wh)" points="22,24,144,24,151,47.6094,434,47.6094,434,412,22,412,22,24" style="stroke: #000000; stroke-width: 1.5;"/><line style="stroke: #000000; stroke-width: 1.5;" x1="22" x2="151" y1="47.6094" y2="47.6094"/><text fill="#000000" font-family="sans-serif" font-size="14" font-weight="bold" lengthAdjust="spacingAndGlyphs" textLength="116" x="26" y="40.5332">mastermind.utils</text><!--cluster java.io--><polygon fill="#FFFFFF" filter="url(#fq0djpo6u89wh)" points="56,436,108,436,115,459.6094,208,459.6094,208,536,56,536,56,436" style="stroke: #000000; stroke-width: 1.5;"/><line style="stroke: #000000; stroke-width: 1.5;" x1="56" x2="115" y1="459.6094" y2="459.6094"/><text fill="#000000" font-family="sans-serif" font-size="14" font-weight="bold" lengthAdjust="spacingAndGlyphs" textLength="46" x="60" y="452.5332">java.io</text><!--class mastermind.utils.Console--><rect fill="#FEFECE" filter="url(#fq0djpo6u89wh)" height="200.1953" id="mastermind.utils.Console" style="stroke: #A80036; stroke-width: 1.5;" width="187" x="38.5" y="196"/><ellipse cx="104.25" cy="212" fill="#ADD1B2" rx="11" ry="11" style="stroke: #A80036; stroke-width: 1.0;"/><path d="M107.0156,207.875 Q107.1719,207.6563 107.3594,207.5469 Q107.5469,207.4375 107.7656,207.4375 Q108.1406,207.4375 108.375,207.6953 Q108.6094,207.9531 108.6094,208.5625 L108.6094,210.0156 Q108.6094,210.625 108.375,210.8906 Q108.1406,211.1563 107.7656,211.1563 Q107.4219,211.1563 107.2188,210.9531 Q107.0156,210.7656 106.9063,210.25 Q106.8594,209.8906 106.6719,209.7031 Q106.3438,209.3281 105.7344,209.1094 Q105.125,208.8906 104.5,208.8906 Q103.7344,208.8906 103.1016,209.2188 Q102.4688,209.5469 101.9766,210.2969 Q101.4844,211.0469 101.4844,212.0781 L101.4844,213.1719 Q101.4844,214.4063 102.375,215.2266 Q103.2656,216.0469 104.8594,216.0469 Q105.7969,216.0469 106.4531,215.7969 Q106.8438,215.6406 107.2656,215.2031 Q107.5313,214.9375 107.6797,214.8594 Q107.8281,214.7813 108.0313,214.7813 Q108.3594,214.7813 108.6172,215.0391 Q108.875,215.2969 108.875,215.6406 Q108.875,215.9844 108.5313,216.3906 Q108.0313,216.9688 107.2344,217.2969 Q106.1563,217.75 104.8594,217.75 Q103.3438,217.75 102.1406,217.125 Q101.1563,216.625 100.4688,215.5547 Q99.7813,214.4844 99.7813,213.2031 L99.7813,212.0469 Q99.7813,210.7188 100.3984,209.5703 Q101.0156,208.4219 102.1094,207.8047 Q103.2031,207.1875 104.4375,207.1875 Q105.1719,207.1875 105.8203,207.3516 Q106.4688,207.5156 107.0156,207.875 Z "/><text fill="#000000" font-family="sans-serif" font-size="12" lengthAdjust="spacingAndGlyphs" textLength="47" x="124.75" y="216.9102">Console</text><line style="stroke: #A80036; stroke-width: 1.5;" x1="39.5" x2="224.5" y1="228" y2="228"/><rect fill="none" height="6" style="stroke: #C82930; stroke-width: 1.0;" width="6" x="46.5" y="237.418"/><text fill="#000000" font-family="sans-serif" font-size="11" lengthAdjust="spacingAndGlyphs" textLength="161" x="58.5" y="243.4189">bufferedReader: BufferedReader</text><line style="stroke: #A80036; stroke-width: 1.5;" x1="39.5" x2="224.5" y1="249.8359" y2="249.8359"/><ellipse cx="49.5" cy="262.2539" fill="#84BE84" rx="3" ry="3" style="stroke: #038048; stroke-width: 1.0;"/><text fill="#000000" font-family="sans-serif" font-size="11" lengthAdjust="spacingAndGlyphs" textLength="47" x="58.5" y="265.2549">Console()</text><ellipse cx="49.5" cy="276.0898" fill="#84BE84" rx="3" ry="3" style="stroke: #038048; stroke-width: 1.0;"/><text fill="#000000" font-family="sans-serif" font-size="11" lengthAdjust="spacingAndGlyphs" textLength="81" x="58.5" y="279.0908">write(char): void</text><ellipse cx="49.5" cy="289.9258" fill="#84BE84" rx="3" ry="3" style="stroke: #038048; stroke-width: 1.0;"/><text fill="#000000" font-family="sans-serif" font-size="11" lengthAdjust="spacingAndGlyphs" textLength="87" x="58.5" y="292.9268">write(String): void</text><ellipse cx="49.5" cy="303.7617" fill="#84BE84" rx="3" ry="3" style="stroke: #038048; stroke-width: 1.0;"/><text fill="#000000" font-family="sans-serif" font-size="11" lengthAdjust="spacingAndGlyphs" textLength="86" x="58.5" y="306.7627">readInt(String): int</text><ellipse cx="49.5" cy="317.5977" fill="#84BE84" rx="3" ry="3" style="stroke: #038048; stroke-width: 1.0;"/><text fill="#000000" font-family="sans-serif" font-size="11" lengthAdjust="spacingAndGlyphs" textLength="109" x="58.5" y="320.5986">readChar(String): char</text><ellipse cx="49.5" cy="331.4336" fill="#84BE84" rx="3" ry="3" style="stroke: #038048; stroke-width: 1.0;"/><text fill="#000000" font-family="sans-serif" font-size="11" lengthAdjust="spacingAndGlyphs" textLength="120" x="58.5" y="334.4346">readString(String): String</text><ellipse cx="49.5" cy="345.2695" fill="#84BE84" rx="3" ry="3" style="stroke: #038048; stroke-width: 1.0;"/><text fill="#000000" font-family="sans-serif" font-size="11" lengthAdjust="spacingAndGlyphs" textLength="78" x="58.5" y="348.2705">writeln(int): void</text><ellipse cx="49.5" cy="359.1055" fill="#84BE84" rx="3" ry="3" style="stroke: #038048; stroke-width: 1.0;"/><text fill="#000000" font-family="sans-serif" font-size="11" lengthAdjust="spacingAndGlyphs" textLength="95" x="58.5" y="362.1064">writeln(String): void</text><ellipse cx="49.5" cy="372.9414" fill="#84BE84" rx="3" ry="3" style="stroke: #038048; stroke-width: 1.0;"/><text fill="#000000" font-family="sans-serif" font-size="11" lengthAdjust="spacingAndGlyphs" textLength="67" x="58.5" y="375.9424">writeln(): void</text><rect fill="#F24D5C" height="6" style="stroke: #C82930; stroke-width: 1.0;" width="6" x="46.5" y="383.7773"/><text fill="#000000" font-family="sans-serif" font-size="11" lengthAdjust="spacingAndGlyphs" textLength="111" x="58.5" y="389.7783">writeError(String): void</text><!--class mastermind.utils.WithConsoleModel--><rect fill="#FEFECE" filter="url(#fq0djpo6u89wh)" height="75.6719" id="mastermind.utils.WithConsoleModel" style="stroke: #A80036; stroke-width: 1.5;" width="136" x="167" y="60"/><ellipse cx="182" cy="76" fill="#ADD1B2" rx="11" ry="11" style="stroke: #A80036; stroke-width: 1.0;"/><path d="M184.7656,71.875 Q184.9219,71.6563 185.1094,71.5469 Q185.2969,71.4375 185.5156,71.4375 Q185.8906,71.4375 186.125,71.6953 Q186.3594,71.9531 186.3594,72.5625 L186.3594,74.0156 Q186.3594,74.625 186.125,74.8906 Q185.8906,75.1563 185.5156,75.1563 Q185.1719,75.1563 184.9688,74.9531 Q184.7656,74.7656 184.6563,74.25 Q184.6094,73.8906 184.4219,73.7031 Q184.0938,73.3281 183.4844,73.1094 Q182.875,72.8906 182.25,72.8906 Q181.4844,72.8906 180.8516,73.2188 Q180.2188,73.5469 179.7266,74.2969 Q179.2344,75.0469 179.2344,76.0781 L179.2344,77.1719 Q179.2344,78.4063 180.125,79.2266 Q181.0156,80.0469 182.6094,80.0469 Q183.5469,80.0469 184.2031,79.7969 Q184.5938,79.6406 185.0156,79.2031 Q185.2813,78.9375 185.4297,78.8594 Q185.5781,78.7813 185.7813,78.7813 Q186.1094,78.7813 186.3672,79.0391 Q186.625,79.2969 186.625,79.6406 Q186.625,79.9844 186.2813,80.3906 Q185.7813,80.9688 184.9844,81.2969 Q183.9063,81.75 182.6094,81.75 Q181.0938,81.75 179.8906,81.125 Q178.9063,80.625 178.2188,79.5547 Q177.5313,78.4844 177.5313,77.2031 L177.5313,76.0469 Q177.5313,74.7188 178.1484,73.5703 Q178.7656,72.4219 179.8594,71.8047 Q180.9531,71.1875 182.1875,71.1875 Q182.9219,71.1875 183.5703,71.3516 Q184.2188,71.5156 184.7656,71.875 Z "/><text fill="#000000" font-family="sans-serif" font-size="12" lengthAdjust="spacingAndGlyphs" textLength="104" x="196" y="80.9102">WithConsoleModel</text><line style="stroke: #A80036; stroke-width: 1.5;" x1="168" x2="302" y1="92" y2="92"/><polygon fill="none" points="178,99.418,182,103.418,178,107.418,174,103.418" style="stroke: #B38D22; stroke-width: 1.0;"/><text fill="#000000" font-family="sans-serif" font-size="11" lengthAdjust="spacingAndGlyphs" textLength="83" x="187" y="107.4189">console: Console</text><line style="stroke: #A80036; stroke-width: 1.5;" x1="168" x2="302" y1="113.8359" y2="113.8359"/><polygon fill="#FFFF44" points="178,121.2539,182,125.2539,178,129.2539,174,125.2539" style="stroke: #B38D22; stroke-width: 1.0;"/><text fill="#000000" font-family="sans-serif" font-size="11" lengthAdjust="spacingAndGlyphs" textLength="96" x="187" y="129.2549">WithConsoleModel()</text><!--class mastermind.utils.YesNoDialog--><rect fill="#FEFECE" filter="url(#fq0djpo6u89wh)" height="158.6875" id="mastermind.utils.YesNoDialog" style="stroke: #A80036; stroke-width: 1.5;" width="157" x="260.5" y="216.5"/><ellipse cx="298.9" cy="232.5" fill="#ADD1B2" rx="11" ry="11" style="stroke: #A80036; stroke-width: 1.0;"/><path d="M301.6656,228.375 Q301.8219,228.1563 302.0094,228.0469 Q302.1969,227.9375 302.4156,227.9375 Q302.7906,227.9375 303.025,228.1953 Q303.2594,228.4531 303.2594,229.0625 L303.2594,230.5156 Q303.2594,231.125 303.025,231.3906 Q302.7906,231.6563 302.4156,231.6563 Q302.0719,231.6563 301.8688,231.4531 Q301.6656,231.2656 301.5563,230.75 Q301.5094,230.3906 301.3219,230.2031 Q300.9938,229.8281 300.3844,229.6094 Q299.775,229.3906 299.15,229.3906 Q298.3844,229.3906 297.7516,229.7188 Q297.1188,230.0469 296.6266,230.7969 Q296.1344,231.5469 296.1344,232.5781 L296.1344,233.6719 Q296.1344,234.9063 297.025,235.7266 Q297.9156,236.5469 299.5094,236.5469 Q300.4469,236.5469 301.1031,236.2969 Q301.4938,236.1406 301.9156,235.7031 Q302.1813,235.4375 302.3297,235.3594 Q302.4781,235.2813 302.6813,235.2813 Q303.0094,235.2813 303.2672,235.5391 Q303.525,235.7969 303.525,236.1406 Q303.525,236.4844 303.1813,236.8906 Q302.6813,237.4688 301.8844,237.7969 Q300.8063,238.25 299.5094,238.25 Q297.9938,238.25 296.7906,237.625 Q295.8063,237.125 295.1188,236.0547 Q294.4313,234.9844 294.4313,233.7031 L294.4313,232.5469 Q294.4313,231.2188 295.0484,230.0703 Q295.6656,228.9219 296.7594,228.3047 Q297.8531,227.6875 299.0875,227.6875 Q299.8219,227.6875 300.4703,227.8516 Q301.1188,228.0156 301.6656,228.375 Z "/><text fill="#000000" font-family="sans-serif" font-size="12" lengthAdjust="spacingAndGlyphs" textLength="73" x="318.1" y="237.4102">YesNoDialog</text><line style="stroke: #A80036; stroke-width: 1.5;" x1="261.5" x2="416.5" y1="248.5" y2="248.5"/><rect fill="none" height="6" style="stroke: #C82930; stroke-width: 1.0;" width="6" x="268.5" y="257.918"/><text fill="#000000" font-family="sans-serif" font-size="11" lengthAdjust="spacingAndGlyphs" text-decoration="underline" textLength="89" x="280.5" y="263.9189">AFIRMATIVE: char</text><rect fill="none" height="6" style="stroke: #C82930; stroke-width: 1.0;" width="6" x="268.5" y="271.7539"/><text fill="#000000" font-family="sans-serif" font-size="11" lengthAdjust="spacingAndGlyphs" text-decoration="underline" textLength="79" x="280.5" y="277.7549">NEGATIVE: char</text><rect fill="none" height="6" style="stroke: #C82930; stroke-width: 1.0;" width="6" x="268.5" y="285.5898"/><text fill="#000000" font-family="sans-serif" font-size="11" lengthAdjust="spacingAndGlyphs" text-decoration="underline" textLength="85" x="280.5" y="291.5908">QUESTION: String</text><rect fill="none" height="6" style="stroke: #C82930; stroke-width: 1.0;" width="6" x="268.5" y="299.4258"/><text fill="#000000" font-family="sans-serif" font-size="11" lengthAdjust="spacingAndGlyphs" text-decoration="underline" textLength="84" x="280.5" y="305.4268">MESSAGE: String</text><line style="stroke: #A80036; stroke-width: 1.5;" x1="261.5" x2="416.5" y1="311.8438" y2="311.8438"/><ellipse cx="271.5" cy="324.2617" fill="#84BE84" rx="3" ry="3" style="stroke: #038048; stroke-width: 1.0;"/><text fill="#000000" font-family="sans-serif" font-size="11" lengthAdjust="spacingAndGlyphs" textLength="70" x="280.5" y="327.2627">YesNoDialog()</text><ellipse cx="271.5" cy="338.0977" fill="#84BE84" rx="3" ry="3" style="stroke: #038048; stroke-width: 1.0;"/><text fill="#000000" font-family="sans-serif" font-size="11" lengthAdjust="spacingAndGlyphs" textLength="102" x="280.5" y="341.0986">read(String): boolean</text><rect fill="#F24D5C" height="6" style="stroke: #C82930; stroke-width: 1.0;" width="6" x="268.5" y="348.9336"/><text fill="#000000" font-family="sans-serif" font-size="11" lengthAdjust="spacingAndGlyphs" text-decoration="underline" textLength="124" x="280.5" y="354.9346">isNegative(char): boolean</text><rect fill="#F24D5C" height="6" style="stroke: #C82930; stroke-width: 1.0;" width="6" x="268.5" y="362.7695"/><text fill="#000000" font-family="sans-serif" font-size="11" lengthAdjust="spacingAndGlyphs" text-decoration="underline" textLength="131" x="280.5" y="368.7705">isAfirmative(char): boolean</text><!--class java.io.BufferedReader--><rect fill="#FEFECE" filter="url(#fq0djpo6u89wh)" height="48" id="java.io.BufferedReader" style="stroke: #A80036; stroke-width: 1.5;" width="119" x="72.5" y="472"/><ellipse cx="87.5" cy="488" fill="#ADD1B2" rx="11" ry="11" style="stroke: #A80036; stroke-width: 1.0;"/><path d="M90.2656,483.875 Q90.4219,483.6563 90.6094,483.5469 Q90.7969,483.4375 91.0156,483.4375 Q91.3906,483.4375 91.625,483.6953 Q91.8594,483.9531 91.8594,484.5625 L91.8594,486.0156 Q91.8594,486.625 91.625,486.8906 Q91.3906,487.1563 91.0156,487.1563 Q90.6719,487.1563 90.4688,486.9531 Q90.2656,486.7656 90.1563,486.25 Q90.1094,485.8906 89.9219,485.7031 Q89.5938,485.3281 88.9844,485.1094 Q88.375,484.8906 87.75,484.8906 Q86.9844,484.8906 86.3516,485.2188 Q85.7188,485.5469 85.2266,486.2969 Q84.7344,487.0469 84.7344,488.0781 L84.7344,489.1719 Q84.7344,490.4063 85.625,491.2266 Q86.5156,492.0469 88.1094,492.0469 Q89.0469,492.0469 89.7031,491.7969 Q90.0938,491.6406 90.5156,491.2031 Q90.7813,490.9375 90.9297,490.8594 Q91.0781,490.7813 91.2813,490.7813 Q91.6094,490.7813 91.8672,491.0391 Q92.125,491.2969 92.125,491.6406 Q92.125,491.9844 91.7813,492.3906 Q91.2813,492.9688 90.4844,493.2969 Q89.4063,493.75 88.1094,493.75 Q86.5938,493.75 85.3906,493.125 Q84.4063,492.625 83.7188,491.5547 Q83.0313,490.4844 83.0313,489.2031 L83.0313,488.0469 Q83.0313,486.7188 83.6484,485.5703 Q84.2656,484.4219 85.3594,483.8047 Q86.4531,483.1875 87.6875,483.1875 Q88.4219,483.1875 89.0703,483.3516 Q89.7188,483.5156 90.2656,483.875 Z "/><text fill="#000000" font-family="sans-serif" font-size="12" lengthAdjust="spacingAndGlyphs" textLength="87" x="101.5" y="492.9102">BufferedReader</text><line style="stroke: #A80036; stroke-width: 1.5;" x1="73.5" x2="190.5" y1="504" y2="504"/><line style="stroke: #A80036; stroke-width: 1.5;" x1="73.5" x2="190.5" y1="512" y2="512"/><!--link mastermind.utils.Console to java.io.BufferedReader--><path d="M132,409.55 C132,427.351 132,444.557 132,458.8061 " fill="none" id="mastermind.utils.Console-java.io.BufferedReader" style="stroke: #A80036; stroke-width: 1.0;"/><polygon fill="#A80036" points="132,471.9821,136,462.9821,132,466.9821,128,462.9821,132,471.9821" style="stroke: #A80036; stroke-width: 1.0;"/><line style="stroke: #A80036; stroke-width: 1.0;" x1="132" x2="132" y1="466.9821" y2="458.9821"/><polygon fill="#A80036" points="132,396.29,128,402.29,132,408.29,136,402.29,132,396.29" style="stroke: #A80036; stroke-width: 1.0;"/><!--link mastermind.utils.WithConsoleModel to mastermind.utils.Console--><path d="M209.2,148.094 C203.325,159.275 196.849,171.598 190.222,184.208 " fill="none" id="mastermind.utils.WithConsoleModel-mastermind.utils.Console" style="stroke: #A80036; stroke-width: 1.0;"/><polygon fill="#A80036" points="184.107,195.845,191.8351,189.7396,186.4334,191.4192,184.7538,186.0174,184.107,195.845" style="stroke: #A80036; stroke-width: 1.0;"/><line style="stroke: #A80036; stroke-width: 1.0;" x1="186.4334" x2="190.1545" y1="191.4192" y2="184.337"/><polygon fill="#A80036" points="215.384,136.327,209.052,139.7775,209.8017,146.9495,216.1337,143.499,215.384,136.327" style="stroke: #A80036; stroke-width: 1.0;"/><!--link mastermind.utils.WithConsoleModel to mastermind.utils.YesNoDialog--><path d="M264.297,154.213 C274.541,173.519 286.247,195.581 297.305,216.422 " fill="none" id="mastermind.utils.WithConsoleModel-mastermind.utils.YesNoDialog" style="stroke: #A80036; stroke-width: 1.0;"/><polygon fill="none" points="257.997,157.275,254.806,136.327,270.364,150.713,257.997,157.275" style="stroke: #A80036; stroke-width: 1.0;"/><!--
@startuml

class  mastermind.utils.Console{
- bufferedReader: BufferedReader
+ Console()
+ write(char): void
+ write(String): void
+ readInt(String): int
+ readChar(String): char
+ readString(String): String
+ writeln(int): void
+ writeln(String): void
+ writeln(): void
- writeError(String): void
}
mastermind.utils.Console *-down-> java.io.BufferedReader

class  mastermind.utils.WithConsoleModel{
# console: Console
# WithConsoleModel()
}
mastermind.utils.WithConsoleModel *-down-> mastermind.utils.Console

class  mastermind.utils.YesNoDialog{
- {static} AFIRMATIVE: char
- {static} NEGATIVE: char
- {static} QUESTION: String
- {static} MESSAGE: String
+ YesNoDialog()
+ read(String): boolean
- {static} isNegative(char): boolean
- {static} isAfirmative(char): boolean
}
mastermind.utils.WithConsoleModel <|-down- mastermind.utils.YesNoDialog

@enduml

PlantUML version 1.2019.05(Sat Apr 20 18:45:36 CEST 2019)
(GPL source distribution)
Java Runtime: OpenJDK Runtime Environment
JVM: OpenJDK 64-Bit Server VM
Java Version: 1.8.0_222-b10
Operating System: Windows 10
OS Version: 10.0
Default Encoding: windows-1252
Language: es
Country: ES
--></g></svg>