<?xml version="1.0" encoding="UTF-8" standalone="no"?><svg xmlns="http://www.w3.org/2000/svg" xmlns:xlink="http://www.w3.org/1999/xlink" contentScriptType="application/ecmascript" contentStyleType="text/css" height="944px" preserveAspectRatio="none" style="width:700px;height:944px;" version="1.1" viewBox="0 0 700 944" width="700px" zoomAndPan="magnify"><defs><filter height="300%" id="f956ef83rxnkz" width="300%" x="-1" y="-1"><feGaussianBlur result="blurOut" stdDeviation="2.0"/><feColorMatrix in="blurOut" result="blurOut2" type="matrix" values="0 0 0 0 0 0 0 0 0 0 0 0 0 0 0 0 0 0 .4 0"/><feOffset dx="4.0" dy="4.0" in="blurOut2" result="blurOut3"/><feBlend in="SourceGraphic" in2="blurOut3" mode="normal"/></filter></defs><g><!--cluster mastermind.models--><polygon fill="#FFFFFF" filter="url(#f956ef83rxnkz)" points="22,24,165,24,172,47.6094,570,47.6094,570,932,22,932,22,24" style="stroke: #000000; stroke-width: 1.5;"/><line style="stroke: #000000; stroke-width: 1.5;" x1="22" x2="172" y1="47.6094" y2="47.6094"/><text fill="#000000" font-family="sans-serif" font-size="14" font-weight="bold" lengthAdjust="spacingAndGlyphs" textLength="137" x="26" y="40.5332">mastermind.models</text><!--cluster java.util--><polygon fill="#FFFFFF" filter="url(#f956ef83rxnkz)" points="594,395,655,395,662,418.6094,678,418.6094,678,495,594,495,594,395" style="stroke: #000000; stroke-width: 1.5;"/><line style="stroke: #000000; stroke-width: 1.5;" x1="594" x2="662" y1="418.6094" y2="418.6094"/><text fill="#000000" font-family="sans-serif" font-size="14" font-weight="bold" lengthAdjust="spacingAndGlyphs" textLength="55" x="598" y="411.5332">java.util</text><!--class mastermind.models.Color--><rect fill="#FEFECE" filter="url(#f956ef83rxnkz)" height="186.3594" id="mastermind.models.Color" style="stroke: #A80036; stroke-width: 1.5;" width="132" x="367" y="362"/><ellipse cx="413.75" cy="378" fill="#ADD1B2" rx="11" ry="11" style="stroke: #A80036; stroke-width: 1.0;"/><path d="M416.5156,373.875 Q416.6719,373.6563 416.8594,373.5469 Q417.0469,373.4375 417.2656,373.4375 Q417.6406,373.4375 417.875,373.6953 Q418.1094,373.9531 418.1094,374.5625 L418.1094,376.0156 Q418.1094,376.625 417.875,376.8906 Q417.6406,377.1563 417.2656,377.1563 Q416.9219,377.1563 416.7188,376.9531 Q416.5156,376.7656 416.4063,376.25 Q416.3594,375.8906 416.1719,375.7031 Q415.8438,375.3281 415.2344,375.1094 Q414.625,374.8906 414,374.8906 Q413.2344,374.8906 412.6016,375.2188 Q411.9688,375.5469 411.4766,376.2969 Q410.9844,377.0469 410.9844,378.0781 L410.9844,379.1719 Q410.9844,380.4063 411.875,381.2266 Q412.7656,382.0469 414.3594,382.0469 Q415.2969,382.0469 415.9531,381.7969 Q416.3438,381.6406 416.7656,381.2031 Q417.0313,380.9375 417.1797,380.8594 Q417.3281,380.7813 417.5313,380.7813 Q417.8594,380.7813 418.1172,381.0391 Q418.375,381.2969 418.375,381.6406 Q418.375,381.9844 418.0313,382.3906 Q417.5313,382.9688 416.7344,383.2969 Q415.6563,383.75 414.3594,383.75 Q412.8438,383.75 411.6406,383.125 Q410.6563,382.625 409.9688,381.5547 Q409.2813,380.4844 409.2813,379.2031 L409.2813,378.0469 Q409.2813,376.7188 409.8984,375.5703 Q410.5156,374.4219 411.6094,373.8047 Q412.7031,373.1875 413.9375,373.1875 Q414.6719,373.1875 415.3203,373.3516 Q415.9688,373.5156 416.5156,373.875 Z "/><text fill="#000000" font-family="sans-serif" font-size="12" lengthAdjust="spacingAndGlyphs" textLength="30" x="434.25" y="382.9102">Color</text><line style="stroke: #A80036; stroke-width: 1.5;" x1="368" x2="498" y1="394" y2="394"/><ellipse cx="378" cy="406.418" fill="none" rx="3" ry="3" style="stroke: #038048; stroke-width: 1.0;"/><text fill="#000000" font-family="sans-serif" font-size="11" lengthAdjust="spacingAndGlyphs" text-decoration="underline" textLength="51" x="387" y="409.4189">RED: Color</text><ellipse cx="378" cy="420.2539" fill="none" rx="3" ry="3" style="stroke: #038048; stroke-width: 1.0;"/><text fill="#000000" font-family="sans-serif" font-size="11" lengthAdjust="spacingAndGlyphs" text-decoration="underline" textLength="57" x="387" y="423.2549">BLUE: Color</text><ellipse cx="378" cy="434.0898" fill="none" rx="3" ry="3" style="stroke: #038048; stroke-width: 1.0;"/><text fill="#000000" font-family="sans-serif" font-size="11" lengthAdjust="spacingAndGlyphs" text-decoration="underline" textLength="75" x="387" y="437.0908">YELLOW: Color</text><ellipse cx="378" cy="447.9258" fill="none" rx="3" ry="3" style="stroke: #038048; stroke-width: 1.0;"/><text fill="#000000" font-family="sans-serif" font-size="11" lengthAdjust="spacingAndGlyphs" text-decoration="underline" textLength="65" x="387" y="450.9268">GREEN: Color</text><ellipse cx="378" cy="461.7617" fill="none" rx="3" ry="3" style="stroke: #038048; stroke-width: 1.0;"/><text fill="#000000" font-family="sans-serif" font-size="11" lengthAdjust="spacingAndGlyphs" text-decoration="underline" textLength="75" x="387" y="464.7627">ORANGE: Color</text><ellipse cx="378" cy="475.5977" fill="none" rx="3" ry="3" style="stroke: #038048; stroke-width: 1.0;"/><text fill="#000000" font-family="sans-serif" font-size="11" lengthAdjust="spacingAndGlyphs" text-decoration="underline" textLength="69" x="387" y="478.5986">PURPLE: Color</text><line style="stroke: #A80036; stroke-width: 1.5;" x1="368" x2="498" y1="485.0156" y2="485.0156"/><rect fill="#F24D5C" height="6" style="stroke: #C82930; stroke-width: 1.0;" width="6" x="375" y="494.4336"/><text fill="#000000" font-family="sans-serif" font-size="11" lengthAdjust="spacingAndGlyphs" textLength="33" x="387" y="500.4346">Color()</text><ellipse cx="378" cy="511.2695" fill="#84BE84" rx="3" ry="3" style="stroke: #038048; stroke-width: 1.0;"/><text fill="#000000" font-family="sans-serif" font-size="11" lengthAdjust="spacingAndGlyphs" text-decoration="underline" textLength="105" x="387" y="514.2705">valueOf(String): Color</text><polygon fill="#4177AF" points="378,521.1055,374,527.1055,382,527.1055" style="stroke: #1963A0; stroke-width: 1.0;"/><text fill="#000000" font-family="sans-serif" font-size="11" lengthAdjust="spacingAndGlyphs" text-decoration="underline" textLength="54" x="387" y="528.1064">length(): int</text><polygon fill="#4177AF" points="378,534.9414,374,540.9414,382,540.9414" style="stroke: #1963A0; stroke-width: 1.0;"/><text fill="#000000" font-family="sans-serif" font-size="11" lengthAdjust="spacingAndGlyphs" text-decoration="underline" textLength="106" x="387" y="541.9424">getInstance(int): Color</text><!--class mastermind.models.Combination--><rect fill="#FEFECE" filter="url(#f956ef83rxnkz)" height="103.3438" id="mastermind.models.Combination" style="stroke: #A80036; stroke-width: 1.5;" width="116" x="391" y="129.5"/><ellipse cx="411.85" cy="145.5" fill="#ADD1B2" rx="11" ry="11" style="stroke: #A80036; stroke-width: 1.0;"/><path d="M414.6156,141.375 Q414.7719,141.1563 414.9594,141.0469 Q415.1469,140.9375 415.3656,140.9375 Q415.7406,140.9375 415.975,141.1953 Q416.2094,141.4531 416.2094,142.0625 L416.2094,143.5156 Q416.2094,144.125 415.975,144.3906 Q415.7406,144.6563 415.3656,144.6563 Q415.0219,144.6563 414.8188,144.4531 Q414.6156,144.2656 414.5063,143.75 Q414.4594,143.3906 414.2719,143.2031 Q413.9438,142.8281 413.3344,142.6094 Q412.725,142.3906 412.1,142.3906 Q411.3344,142.3906 410.7016,142.7188 Q410.0688,143.0469 409.5766,143.7969 Q409.0844,144.5469 409.0844,145.5781 L409.0844,146.6719 Q409.0844,147.9063 409.975,148.7266 Q410.8656,149.5469 412.4594,149.5469 Q413.3969,149.5469 414.0531,149.2969 Q414.4438,149.1406 414.8656,148.7031 Q415.1313,148.4375 415.2797,148.3594 Q415.4281,148.2813 415.6313,148.2813 Q415.9594,148.2813 416.2172,148.5391 Q416.475,148.7969 416.475,149.1406 Q416.475,149.4844 416.1313,149.8906 Q415.6313,150.4688 414.8344,150.7969 Q413.7563,151.25 412.4594,151.25 Q410.9438,151.25 409.7406,150.625 Q408.7563,150.125 408.0688,149.0547 Q407.3813,147.9844 407.3813,146.7031 L407.3813,145.5469 Q407.3813,144.2188 407.9984,143.0703 Q408.6156,141.9219 409.7094,141.3047 Q410.8031,140.6875 412.0375,140.6875 Q412.7719,140.6875 413.4203,140.8516 Q414.0688,141.0156 414.6156,141.375 Z "/><text fill="#000000" font-family="sans-serif" font-size="12" lengthAdjust="spacingAndGlyphs" textLength="71" x="427.15" y="150.4102">Combination</text><line style="stroke: #A80036; stroke-width: 1.5;" x1="392" x2="506" y1="161.5" y2="161.5"/><rect fill="none" height="6" style="stroke: #C82930; stroke-width: 1.0;" width="6" x="399" y="170.918"/><text fill="#000000" font-family="sans-serif" font-size="11" lengthAdjust="spacingAndGlyphs" text-decoration="underline" textLength="49" x="411" y="176.9189">WIDTH: int</text><polygon fill="none" points="402,182.7539,406,186.7539,402,190.7539,398,186.7539" style="stroke: #B38D22; stroke-width: 1.0;"/><text fill="#000000" font-family="sans-serif" font-size="11" lengthAdjust="spacingAndGlyphs" textLength="90" x="411" y="190.7549">colors: List&lt;Color&gt;</text><line style="stroke: #A80036; stroke-width: 1.5;" x1="392" x2="506" y1="197.1719" y2="197.1719"/><polygon fill="#FFFF44" points="402,204.5898,406,208.5898,402,212.5898,398,208.5898" style="stroke: #B38D22; stroke-width: 1.0;"/><text fill="#000000" font-family="sans-serif" font-size="11" lengthAdjust="spacingAndGlyphs" textLength="66" x="411" y="212.5908">Combination()</text><ellipse cx="402" cy="223.4258" fill="#84BE84" rx="3" ry="3" style="stroke: #038048; stroke-width: 1.0;"/><text fill="#000000" font-family="sans-serif" font-size="11" lengthAdjust="spacingAndGlyphs" text-decoration="underline" textLength="67" x="411" y="226.4268">getWidth(): int</text><!--class mastermind.models.Error--><rect fill="#FEFECE" filter="url(#f956ef83rxnkz)" height="117.1797" id="mastermind.models.Error" style="stroke: #A80036; stroke-width: 1.5;" width="172" x="216" y="799"/><ellipse cx="284.25" cy="815" fill="#ADD1B2" rx="11" ry="11" style="stroke: #A80036; stroke-width: 1.0;"/><path d="M287.0156,810.875 Q287.1719,810.6563 287.3594,810.5469 Q287.5469,810.4375 287.7656,810.4375 Q288.1406,810.4375 288.375,810.6953 Q288.6094,810.9531 288.6094,811.5625 L288.6094,813.0156 Q288.6094,813.625 288.375,813.8906 Q288.1406,814.1563 287.7656,814.1563 Q287.4219,814.1563 287.2188,813.9531 Q287.0156,813.7656 286.9063,813.25 Q286.8594,812.8906 286.6719,812.7031 Q286.3438,812.3281 285.7344,812.1094 Q285.125,811.8906 284.5,811.8906 Q283.7344,811.8906 283.1016,812.2188 Q282.4688,812.5469 281.9766,813.2969 Q281.4844,814.0469 281.4844,815.0781 L281.4844,816.1719 Q281.4844,817.4063 282.375,818.2266 Q283.2656,819.0469 284.8594,819.0469 Q285.7969,819.0469 286.4531,818.7969 Q286.8438,818.6406 287.2656,818.2031 Q287.5313,817.9375 287.6797,817.8594 Q287.8281,817.7813 288.0313,817.7813 Q288.3594,817.7813 288.6172,818.0391 Q288.875,818.2969 288.875,818.6406 Q288.875,818.9844 288.5313,819.3906 Q288.0313,819.9688 287.2344,820.2969 Q286.1563,820.75 284.8594,820.75 Q283.3438,820.75 282.1406,820.125 Q281.1563,819.625 280.4688,818.5547 Q279.7813,817.4844 279.7813,816.2031 L279.7813,815.0469 Q279.7813,813.7188 280.3984,812.5703 Q281.0156,811.4219 282.1094,810.8047 Q283.2031,810.1875 284.4375,810.1875 Q285.1719,810.1875 285.8203,810.3516 Q286.4688,810.5156 287.0156,810.875 Z "/><text fill="#000000" font-family="sans-serif" font-size="12" lengthAdjust="spacingAndGlyphs" textLength="27" x="304.75" y="819.9102">Error</text><line style="stroke: #A80036; stroke-width: 1.5;" x1="217" x2="387" y1="831" y2="831"/><ellipse cx="227" cy="843.418" fill="none" rx="3" ry="3" style="stroke: #038048; stroke-width: 1.0;"/><text fill="#000000" font-family="sans-serif" font-size="11" lengthAdjust="spacingAndGlyphs" text-decoration="underline" textLength="92" x="236" y="846.4189">DUPLICATED: Error</text><ellipse cx="227" cy="857.2539" fill="none" rx="3" ry="3" style="stroke: #038048; stroke-width: 1.0;"/><text fill="#000000" font-family="sans-serif" font-size="11" lengthAdjust="spacingAndGlyphs" text-decoration="underline" textLength="146" x="236" y="860.2549">WRONG_CHARACTERS: Error</text><ellipse cx="227" cy="871.0898" fill="none" rx="3" ry="3" style="stroke: #038048; stroke-width: 1.0;"/><text fill="#000000" font-family="sans-serif" font-size="11" lengthAdjust="spacingAndGlyphs" text-decoration="underline" textLength="116" x="236" y="874.0908">WRONG_LENGTH: Error</text><line style="stroke: #A80036; stroke-width: 1.5;" x1="217" x2="387" y1="880.5078" y2="880.5078"/><rect fill="#F24D5C" height="6" style="stroke: #C82930; stroke-width: 1.0;" width="6" x="224" y="889.9258"/><text fill="#000000" font-family="sans-serif" font-size="11" lengthAdjust="spacingAndGlyphs" textLength="32" x="236" y="895.9268">Error()</text><ellipse cx="227" cy="906.7617" fill="#84BE84" rx="3" ry="3" style="stroke: #038048; stroke-width: 1.0;"/><text fill="#000000" font-family="sans-serif" font-size="11" lengthAdjust="spacingAndGlyphs" text-decoration="underline" textLength="104" x="236" y="909.7627">valueOf(String): Error</text><!--class mastermind.models.Game--><rect fill="#FEFECE" filter="url(#f956ef83rxnkz)" height="241.7031" id="mastermind.models.Game" style="stroke: #A80036; stroke-width: 1.5;" width="275" x="67.5" y="60"/><ellipse cx="183.75" cy="76" fill="#ADD1B2" rx="11" ry="11" style="stroke: #A80036; stroke-width: 1.0;"/><path d="M186.5156,71.875 Q186.6719,71.6563 186.8594,71.5469 Q187.0469,71.4375 187.2656,71.4375 Q187.6406,71.4375 187.875,71.6953 Q188.1094,71.9531 188.1094,72.5625 L188.1094,74.0156 Q188.1094,74.625 187.875,74.8906 Q187.6406,75.1563 187.2656,75.1563 Q186.9219,75.1563 186.7188,74.9531 Q186.5156,74.7656 186.4063,74.25 Q186.3594,73.8906 186.1719,73.7031 Q185.8438,73.3281 185.2344,73.1094 Q184.625,72.8906 184,72.8906 Q183.2344,72.8906 182.6016,73.2188 Q181.9688,73.5469 181.4766,74.2969 Q180.9844,75.0469 180.9844,76.0781 L180.9844,77.1719 Q180.9844,78.4063 181.875,79.2266 Q182.7656,80.0469 184.3594,80.0469 Q185.2969,80.0469 185.9531,79.7969 Q186.3438,79.6406 186.7656,79.2031 Q187.0313,78.9375 187.1797,78.8594 Q187.3281,78.7813 187.5313,78.7813 Q187.8594,78.7813 188.1172,79.0391 Q188.375,79.2969 188.375,79.6406 Q188.375,79.9844 188.0313,80.3906 Q187.5313,80.9688 186.7344,81.2969 Q185.6563,81.75 184.3594,81.75 Q182.8438,81.75 181.6406,81.125 Q180.6563,80.625 179.9688,79.5547 Q179.2813,78.4844 179.2813,77.2031 L179.2813,76.0469 Q179.2813,74.7188 179.8984,73.5703 Q180.5156,72.4219 181.6094,71.8047 Q182.7031,71.1875 183.9375,71.1875 Q184.6719,71.1875 185.3203,71.3516 Q185.9688,71.5156 186.5156,71.875 Z "/><text fill="#000000" font-family="sans-serif" font-size="12" lengthAdjust="spacingAndGlyphs" textLength="34" x="204.25" y="80.9102">Game</text><line style="stroke: #A80036; stroke-width: 1.5;" x1="68.5" x2="341.5" y1="92" y2="92"/><ellipse cx="78.5" cy="104.418" fill="none" rx="3" ry="3" style="stroke: #038048; stroke-width: 1.0;"/><text fill="#000000" font-family="sans-serif" font-size="11" lengthAdjust="spacingAndGlyphs" text-decoration="underline" textLength="73" x="87.5" y="107.4189">NO_ERROR: int</text><rect fill="none" height="6" style="stroke: #C82930; stroke-width: 1.0;" width="6" x="75.5" y="115.2539"/><text fill="#000000" font-family="sans-serif" font-size="11" lengthAdjust="spacingAndGlyphs" text-decoration="underline" textLength="75" x="87.5" y="121.2549">MAX_LONG: int</text><rect fill="none" height="6" style="stroke: #C82930; stroke-width: 1.0;" width="6" x="75.5" y="129.0898"/><text fill="#000000" font-family="sans-serif" font-size="11" lengthAdjust="spacingAndGlyphs" textLength="185" x="87.5" y="135.0908">secretCombination: SecretCombination</text><rect fill="none" height="6" style="stroke: #C82930; stroke-width: 1.0;" width="6" x="75.5" y="142.9258"/><text fill="#000000" font-family="sans-serif" font-size="11" lengthAdjust="spacingAndGlyphs" textLength="249" x="87.5" y="148.9268">proposedCombinations: List&lt;ProposedCombination&gt;</text><rect fill="none" height="6" style="stroke: #C82930; stroke-width: 1.0;" width="6" x="75.5" y="156.7617"/><text fill="#000000" font-family="sans-serif" font-size="11" lengthAdjust="spacingAndGlyphs" textLength="98" x="87.5" y="162.7627">results: List&lt;Result&gt;</text><rect fill="none" height="6" style="stroke: #C82930; stroke-width: 1.0;" width="6" x="75.5" y="170.5977"/><text fill="#000000" font-family="sans-serif" font-size="11" lengthAdjust="spacingAndGlyphs" textLength="36" x="87.5" y="176.5986">turn: int</text><line style="stroke: #A80036; stroke-width: 1.5;" x1="68.5" x2="341.5" y1="183.0156" y2="183.0156"/><ellipse cx="78.5" cy="195.4336" fill="#84BE84" rx="3" ry="3" style="stroke: #038048; stroke-width: 1.0;"/><text fill="#000000" font-family="sans-serif" font-size="11" lengthAdjust="spacingAndGlyphs" textLength="36" x="87.5" y="198.4346">Game()</text><ellipse cx="78.5" cy="209.2695" fill="#84BE84" rx="3" ry="3" style="stroke: #038048; stroke-width: 1.0;"/><text fill="#000000" font-family="sans-serif" font-size="11" lengthAdjust="spacingAndGlyphs" textLength="58" x="87.5" y="212.2705">clear(): void</text><ellipse cx="78.5" cy="223.1055" fill="#84BE84" rx="3" ry="3" style="stroke: #038048; stroke-width: 1.0;"/><text fill="#000000" font-family="sans-serif" font-size="11" lengthAdjust="spacingAndGlyphs" textLength="236" x="87.5" y="226.1064">proposeCombination(ProposedCombination): void</text><ellipse cx="78.5" cy="236.9414" fill="#84BE84" rx="3" ry="3" style="stroke: #038048; stroke-width: 1.0;"/><text fill="#000000" font-family="sans-serif" font-size="11" lengthAdjust="spacingAndGlyphs" textLength="67" x="87.5" y="239.9424">getWidth(): int</text><ellipse cx="78.5" cy="250.7773" fill="#84BE84" rx="3" ry="3" style="stroke: #038048; stroke-width: 1.0;"/><text fill="#000000" font-family="sans-serif" font-size="11" lengthAdjust="spacingAndGlyphs" textLength="94" x="87.5" y="253.7783">isLooser(): boolean</text><ellipse cx="78.5" cy="264.6133" fill="#84BE84" rx="3" ry="3" style="stroke: #038048; stroke-width: 1.0;"/><text fill="#000000" font-family="sans-serif" font-size="11" lengthAdjust="spacingAndGlyphs" textLength="62" x="87.5" y="267.6143">getTurn(): int</text><ellipse cx="78.5" cy="278.4492" fill="#84BE84" rx="3" ry="3" style="stroke: #038048; stroke-width: 1.0;"/><text fill="#000000" font-family="sans-serif" font-size="11" lengthAdjust="spacingAndGlyphs" textLength="94" x="87.5" y="281.4502">isWinner(): boolean</text><ellipse cx="78.5" cy="292.2852" fill="#84BE84" rx="3" ry="3" style="stroke: #038048; stroke-width: 1.0;"/><text fill="#000000" font-family="sans-serif" font-size="11" lengthAdjust="spacingAndGlyphs" textLength="89" x="87.5" y="295.2861">getCodes(): int[][][]</text><!--class mastermind.models.SecretCombination--><rect fill="#FEFECE" filter="url(#f956ef83rxnkz)" height="75.6719" id="mastermind.models.SecretCombination" style="stroke: #A80036; stroke-width: 1.5;" width="219" x="112.5" y="417"/><ellipse cx="164.75" cy="433" fill="#ADD1B2" rx="11" ry="11" style="stroke: #A80036; stroke-width: 1.0;"/><path d="M167.5156,428.875 Q167.6719,428.6563 167.8594,428.5469 Q168.0469,428.4375 168.2656,428.4375 Q168.6406,428.4375 168.875,428.6953 Q169.1094,428.9531 169.1094,429.5625 L169.1094,431.0156 Q169.1094,431.625 168.875,431.8906 Q168.6406,432.1563 168.2656,432.1563 Q167.9219,432.1563 167.7188,431.9531 Q167.5156,431.7656 167.4063,431.25 Q167.3594,430.8906 167.1719,430.7031 Q166.8438,430.3281 166.2344,430.1094 Q165.625,429.8906 165,429.8906 Q164.2344,429.8906 163.6016,430.2188 Q162.9688,430.5469 162.4766,431.2969 Q161.9844,432.0469 161.9844,433.0781 L161.9844,434.1719 Q161.9844,435.4063 162.875,436.2266 Q163.7656,437.0469 165.3594,437.0469 Q166.2969,437.0469 166.9531,436.7969 Q167.3438,436.6406 167.7656,436.2031 Q168.0313,435.9375 168.1797,435.8594 Q168.3281,435.7813 168.5313,435.7813 Q168.8594,435.7813 169.1172,436.0391 Q169.375,436.2969 169.375,436.6406 Q169.375,436.9844 169.0313,437.3906 Q168.5313,437.9688 167.7344,438.2969 Q166.6563,438.75 165.3594,438.75 Q163.8438,438.75 162.6406,438.125 Q161.6563,437.625 160.9688,436.5547 Q160.2813,435.4844 160.2813,434.2031 L160.2813,433.0469 Q160.2813,431.7188 160.8984,430.5703 Q161.5156,429.4219 162.6094,428.8047 Q163.7031,428.1875 164.9375,428.1875 Q165.6719,428.1875 166.3203,428.3516 Q166.9688,428.5156 167.5156,428.875 Z "/><text fill="#000000" font-family="sans-serif" font-size="12" lengthAdjust="spacingAndGlyphs" textLength="106" x="185.25" y="437.9102">SecretCombination</text><line style="stroke: #A80036; stroke-width: 1.5;" x1="113.5" x2="330.5" y1="449" y2="449"/><line style="stroke: #A80036; stroke-width: 1.5;" x1="113.5" x2="330.5" y1="457" y2="457"/><polygon fill="#4177AF" points="123.5,465.418,119.5,471.418,127.5,471.418" style="stroke: #1963A0; stroke-width: 1.0;"/><text fill="#000000" font-family="sans-serif" font-size="11" lengthAdjust="spacingAndGlyphs" textLength="98" x="132.5" y="472.4189">SecretCombination()</text><polygon fill="#4177AF" points="123.5,479.2539,119.5,485.2539,127.5,485.2539" style="stroke: #1963A0; stroke-width: 1.0;"/><text fill="#000000" font-family="sans-serif" font-size="11" lengthAdjust="spacingAndGlyphs" textLength="193" x="132.5" y="486.2549">getResult(ProposedCombination): Result</text><!--class mastermind.models.Result--><rect fill="#FEFECE" filter="url(#f956ef83rxnkz)" height="117.1797" id="mastermind.models.Result" style="stroke: #A80036; stroke-width: 1.5;" width="120" x="38" y="615"/><ellipse cx="76.4" cy="631" fill="#ADD1B2" rx="11" ry="11" style="stroke: #A80036; stroke-width: 1.0;"/><path d="M79.1656,626.875 Q79.3219,626.6563 79.5094,626.5469 Q79.6969,626.4375 79.9156,626.4375 Q80.2906,626.4375 80.525,626.6953 Q80.7594,626.9531 80.7594,627.5625 L80.7594,629.0156 Q80.7594,629.625 80.525,629.8906 Q80.2906,630.1563 79.9156,630.1563 Q79.5719,630.1563 79.3688,629.9531 Q79.1656,629.7656 79.0563,629.25 Q79.0094,628.8906 78.8219,628.7031 Q78.4938,628.3281 77.8844,628.1094 Q77.275,627.8906 76.65,627.8906 Q75.8844,627.8906 75.2516,628.2188 Q74.6188,628.5469 74.1266,629.2969 Q73.6344,630.0469 73.6344,631.0781 L73.6344,632.1719 Q73.6344,633.4063 74.525,634.2266 Q75.4156,635.0469 77.0094,635.0469 Q77.9469,635.0469 78.6031,634.7969 Q78.9938,634.6406 79.4156,634.2031 Q79.6813,633.9375 79.8297,633.8594 Q79.9781,633.7813 80.1813,633.7813 Q80.5094,633.7813 80.7672,634.0391 Q81.025,634.2969 81.025,634.6406 Q81.025,634.9844 80.6813,635.3906 Q80.1813,635.9688 79.3844,636.2969 Q78.3063,636.75 77.0094,636.75 Q75.4938,636.75 74.2906,636.125 Q73.3063,635.625 72.6188,634.5547 Q71.9313,633.4844 71.9313,632.2031 L71.9313,631.0469 Q71.9313,629.7188 72.5484,628.5703 Q73.1656,627.4219 74.2594,626.8047 Q75.3531,626.1875 76.5875,626.1875 Q77.3219,626.1875 77.9703,626.3516 Q78.6188,626.5156 79.1656,626.875 Z "/><text fill="#000000" font-family="sans-serif" font-size="12" lengthAdjust="spacingAndGlyphs" textLength="36" x="95.6" y="635.9102">Result</text><line style="stroke: #A80036; stroke-width: 1.5;" x1="39" x2="157" y1="647" y2="647"/><rect fill="none" height="6" style="stroke: #C82930; stroke-width: 1.0;" width="6" x="46" y="656.418"/><text fill="#000000" font-family="sans-serif" font-size="11" lengthAdjust="spacingAndGlyphs" textLength="48" x="58" y="662.4189">blacks: int</text><rect fill="none" height="6" style="stroke: #C82930; stroke-width: 1.0;" width="6" x="46" y="670.2539"/><text fill="#000000" font-family="sans-serif" font-size="11" lengthAdjust="spacingAndGlyphs" textLength="50" x="58" y="676.2549">whites: int</text><line style="stroke: #A80036; stroke-width: 1.5;" x1="39" x2="157" y1="682.6719" y2="682.6719"/><polygon fill="#4177AF" points="49,691.0898,45,697.0898,53,697.0898" style="stroke: #1963A0; stroke-width: 1.0;"/><text fill="#000000" font-family="sans-serif" font-size="11" lengthAdjust="spacingAndGlyphs" textLength="66" x="58" y="698.0908">Result(int, int)</text><polygon fill="#4177AF" points="49,704.9258,45,710.9258,53,710.9258" style="stroke: #1963A0; stroke-width: 1.0;"/><text fill="#000000" font-family="sans-serif" font-size="11" lengthAdjust="spacingAndGlyphs" textLength="94" x="58" y="711.9268">isWinner(): boolean</text><polygon fill="#4177AF" points="49,718.7617,45,724.7617,53,724.7617" style="stroke: #1963A0; stroke-width: 1.0;"/><text fill="#000000" font-family="sans-serif" font-size="11" lengthAdjust="spacingAndGlyphs" textLength="77" x="58" y="725.7627">getCodes(): int[]</text><!--class mastermind.models.ProposedCombination--><rect fill="#FEFECE" filter="url(#f956ef83rxnkz)" height="131.0156" id="mastermind.models.ProposedCombination" style="stroke: #A80036; stroke-width: 1.5;" width="217" x="193.5" y="608"/><ellipse cx="235.5" cy="624" fill="#ADD1B2" rx="11" ry="11" style="stroke: #A80036; stroke-width: 1.0;"/><path d="M238.2656,619.875 Q238.4219,619.6563 238.6094,619.5469 Q238.7969,619.4375 239.0156,619.4375 Q239.3906,619.4375 239.625,619.6953 Q239.8594,619.9531 239.8594,620.5625 L239.8594,622.0156 Q239.8594,622.625 239.625,622.8906 Q239.3906,623.1563 239.0156,623.1563 Q238.6719,623.1563 238.4688,622.9531 Q238.2656,622.7656 238.1563,622.25 Q238.1094,621.8906 237.9219,621.7031 Q237.5938,621.3281 236.9844,621.1094 Q236.375,620.8906 235.75,620.8906 Q234.9844,620.8906 234.3516,621.2188 Q233.7188,621.5469 233.2266,622.2969 Q232.7344,623.0469 232.7344,624.0781 L232.7344,625.1719 Q232.7344,626.4063 233.625,627.2266 Q234.5156,628.0469 236.1094,628.0469 Q237.0469,628.0469 237.7031,627.7969 Q238.0938,627.6406 238.5156,627.2031 Q238.7813,626.9375 238.9297,626.8594 Q239.0781,626.7813 239.2813,626.7813 Q239.6094,626.7813 239.8672,627.0391 Q240.125,627.2969 240.125,627.6406 Q240.125,627.9844 239.7813,628.3906 Q239.2813,628.9688 238.4844,629.2969 Q237.4063,629.75 236.1094,629.75 Q234.5938,629.75 233.3906,629.125 Q232.4063,628.625 231.7188,627.5547 Q231.0313,626.4844 231.0313,625.2031 L231.0313,624.0469 Q231.0313,622.7188 231.6484,621.5703 Q232.2656,620.4219 233.3594,619.8047 Q234.4531,619.1875 235.6875,619.1875 Q236.4219,619.1875 237.0703,619.3516 Q237.7188,619.5156 238.2656,619.875 Z "/><text fill="#000000" font-family="sans-serif" font-size="12" lengthAdjust="spacingAndGlyphs" textLength="125" x="255.5" y="628.9102">ProposedCombination</text><line style="stroke: #A80036; stroke-width: 1.5;" x1="194.5" x2="409.5" y1="640" y2="640"/><line style="stroke: #A80036; stroke-width: 1.5;" x1="194.5" x2="409.5" y1="648" y2="648"/><ellipse cx="204.5" cy="660.418" fill="#84BE84" rx="3" ry="3" style="stroke: #038048; stroke-width: 1.0;"/><text fill="#000000" font-family="sans-serif" font-size="11" lengthAdjust="spacingAndGlyphs" textLength="112" x="213.5" y="663.4189">ProposedCombination()</text><polygon fill="#4177AF" points="204.5,670.2539,200.5,676.2539,208.5,676.2539" style="stroke: #1963A0; stroke-width: 1.0;"/><text fill="#000000" font-family="sans-serif" font-size="11" lengthAdjust="spacingAndGlyphs" textLength="118" x="213.5" y="677.2549">contains(Color): boolean</text><polygon fill="#4177AF" points="204.5,684.0898,200.5,690.0898,208.5,690.0898" style="stroke: #1963A0; stroke-width: 1.0;"/><text fill="#000000" font-family="sans-serif" font-size="11" lengthAdjust="spacingAndGlyphs" textLength="135" x="213.5" y="691.0908">contains(int, Color): boolean</text><ellipse cx="204.5" cy="701.9258" fill="#84BE84" rx="3" ry="3" style="stroke: #038048; stroke-width: 1.0;"/><text fill="#000000" font-family="sans-serif" font-size="11" lengthAdjust="spacingAndGlyphs" text-decoration="underline" textLength="191" x="213.5" y="704.9268">getInstance(int[]): ProposedCombination</text><ellipse cx="204.5" cy="715.7617" fill="#84BE84" rx="3" ry="3" style="stroke: #038048; stroke-width: 1.0;"/><text fill="#000000" font-family="sans-serif" font-size="11" lengthAdjust="spacingAndGlyphs" text-decoration="underline" textLength="87" x="213.5" y="718.7627">isValid(int[]): Error</text><polygon fill="#4177AF" points="204.5,725.5977,200.5,731.5977,208.5,731.5977" style="stroke: #1963A0; stroke-width: 1.0;"/><text fill="#000000" font-family="sans-serif" font-size="11" lengthAdjust="spacingAndGlyphs" textLength="77" x="213.5" y="732.5986">getCodes(): int[]</text><!--class java.util.List--><rect fill="#FEFECE" filter="url(#f956ef83rxnkz)" height="48" id="java.util.List" style="stroke: #A80036; stroke-width: 1.5;" width="52" x="610" y="431"/><ellipse cx="625" cy="447" fill="#ADD1B2" rx="11" ry="11" style="stroke: #A80036; stroke-width: 1.0;"/><path d="M627.7656,442.875 Q627.9219,442.6563 628.1094,442.5469 Q628.2969,442.4375 628.5156,442.4375 Q628.8906,442.4375 629.125,442.6953 Q629.3594,442.9531 629.3594,443.5625 L629.3594,445.0156 Q629.3594,445.625 629.125,445.8906 Q628.8906,446.1563 628.5156,446.1563 Q628.1719,446.1563 627.9688,445.9531 Q627.7656,445.7656 627.6563,445.25 Q627.6094,444.8906 627.4219,444.7031 Q627.0938,444.3281 626.4844,444.1094 Q625.875,443.8906 625.25,443.8906 Q624.4844,443.8906 623.8516,444.2188 Q623.2188,444.5469 622.7266,445.2969 Q622.2344,446.0469 622.2344,447.0781 L622.2344,448.1719 Q622.2344,449.4063 623.125,450.2266 Q624.0156,451.0469 625.6094,451.0469 Q626.5469,451.0469 627.2031,450.7969 Q627.5938,450.6406 628.0156,450.2031 Q628.2813,449.9375 628.4297,449.8594 Q628.5781,449.7813 628.7813,449.7813 Q629.1094,449.7813 629.3672,450.0391 Q629.625,450.2969 629.625,450.6406 Q629.625,450.9844 629.2813,451.3906 Q628.7813,451.9688 627.9844,452.2969 Q626.9063,452.75 625.6094,452.75 Q624.0938,452.75 622.8906,452.125 Q621.9063,451.625 621.2188,450.5547 Q620.5313,449.4844 620.5313,448.2031 L620.5313,447.0469 Q620.5313,445.7188 621.1484,444.5703 Q621.7656,443.4219 622.8594,442.8047 Q623.9531,442.1875 625.1875,442.1875 Q625.9219,442.1875 626.5703,442.3516 Q627.2188,442.5156 627.7656,442.875 Z "/><text fill="#000000" font-family="sans-serif" font-size="12" lengthAdjust="spacingAndGlyphs" textLength="20" x="639" y="451.9102">List</text><line style="stroke: #A80036; stroke-width: 1.5;" x1="611" x2="661" y1="463" y2="463"/><line style="stroke: #A80036; stroke-width: 1.5;" x1="611" x2="661" y1="471" y2="471"/><!--link mastermind.models.Color to mastermind.models.Color--><path d="M499.055,414.215 C518.708,415.432 534,429.027 534,455 C534,478.538 521.441,491.91 504.458,495.116 " fill="none" id="mastermind.models.Color-mastermind.models.Color" style="stroke: #A80036; stroke-width: 1.0; stroke-dasharray: 7.0,7.0;"/><polygon fill="#A80036" points="499.055,495.785,508.4782,498.6492,504.0171,495.1708,507.4955,490.7097,499.055,495.785" style="stroke: #A80036; stroke-width: 1.0;"/><!--link mastermind.models.Combination to java.util.List--><path d="M491.128,243.277 C528.696,297.921 582.309,375.904 612.673,420.07 " fill="none" id="mastermind.models.Combination-java.util.List" style="stroke: #A80036; stroke-width: 1.0;"/><polygon fill="#A80036" points="620.048,430.798,618.245,421.1156,617.2152,426.6779,611.6529,425.6481,620.048,430.798" style="stroke: #A80036; stroke-width: 1.0;"/><line style="stroke: #A80036; stroke-width: 1.0;" x1="617.2152" x2="612.6835" y1="426.6779" y2="420.085"/><polygon fill="#A80036" points="483.735,232.524,483.8387,239.7344,490.5344,242.4118,490.4306,235.2015,483.735,232.524" style="stroke: #A80036; stroke-width: 1.0;"/><!--link mastermind.models.Combination to mastermind.models.Color--><path d="M445.247,245.799 C443.443,276.465 441.234,314.028 439.19,348.765 " fill="none" id="mastermind.models.Combination-mastermind.models.Color" style="stroke: #A80036; stroke-width: 1.0;"/><polygon fill="#A80036" points="438.417,361.919,442.9392,353.1697,438.711,356.9276,434.9531,352.6994,438.417,361.919" style="stroke: #A80036; stroke-width: 1.0;"/><line style="stroke: #A80036; stroke-width: 1.0;" x1="438.711" x2="439.18" y1="356.9276" y2="348.9415"/><polygon fill="#A80036" points="446.028,232.524,441.6828,238.279,445.3239,244.5033,449.669,238.7484,446.028,232.524" style="stroke: #A80036; stroke-width: 1.0;"/><!--link mastermind.models.Error to mastermind.models.Error--><path d="M388.194,823.721 C408.241,826.564 423,837.824 423,857.5 C423,875.4849 410.669,886.4381 393.239,890.3597 " fill="none" id="mastermind.models.Error-mastermind.models.Error" style="stroke: #A80036; stroke-width: 1.0; stroke-dasharray: 7.0,7.0;"/><polygon fill="#A80036" points="388.194,891.2793,397.765,893.6023,393.1131,890.3836,396.3318,885.7317,388.194,891.2793" style="stroke: #A80036; stroke-width: 1.0;"/><!--link mastermind.models.Game to java.util.List--><path d="M353.992,292.005 C360.321,295.531 366.67,298.88 373,302 C455.096,342.464 495.619,308.666 570,362 C590.505,376.703 607.041,399.791 618.432,419.159 " fill="none" id="mastermind.models.Game-java.util.List" style="stroke: #A80036; stroke-width: 1.0;"/><polygon fill="#A80036" points="624.849,430.63,623.9458,420.8226,622.4079,426.2664,616.9641,424.7284,624.849,430.63" style="stroke: #A80036; stroke-width: 1.0;"/><line style="stroke: #A80036; stroke-width: 1.0;" x1="622.4079" x2="618.502" y1="426.2664" y2="419.2845"/><polygon fill="#A80036" points="342.63,285.48,345.8414,291.9365,353.0365,291.4554,349.825,284.9989,342.63,285.48" style="stroke: #A80036; stroke-width: 1.0;"/><!--link mastermind.models.Game to mastermind.models.SecretCombination--><path d="M213.331,315.292 C215.303,346.844 217.287,378.59 218.858,403.734 " fill="none" id="mastermind.models.Game-mastermind.models.SecretCombination" style="stroke: #A80036; stroke-width: 1.0;"/><polygon fill="#A80036" points="219.686,416.981,223.1164,407.7489,219.3739,411.9907,215.132,408.2482,219.686,416.981" style="stroke: #A80036; stroke-width: 1.0;"/><line style="stroke: #A80036; stroke-width: 1.0;" x1="219.3739" x2="218.875" y1="411.9907" y2="404.006"/><polygon fill="#A80036" points="212.506,302.095,208.8876,308.3326,213.2537,314.0717,216.8721,307.8341,212.506,302.095" style="stroke: #A80036; stroke-width: 1.0;"/><!--link mastermind.models.Game to mastermind.models.Result--><path d="M89.6849,313.427 C80.5275,329.025 72.6493,345.346 67,362 C40.1357,441.194 56.9406,537.778 74.5184,601.986 " fill="none" id="mastermind.models.Game-mastermind.models.Result" style="stroke: #A80036; stroke-width: 1.0;"/><polygon fill="#A80036" points="78.1484,614.779,79.5398,605.0289,76.7836,609.9689,71.8436,607.2126,78.1484,614.779" style="stroke: #A80036; stroke-width: 1.0;"/><line style="stroke: #A80036; stroke-width: 1.0;" x1="76.7836" x2="74.5998" y1="609.9689" y2="602.273"/><polygon fill="#A80036" points="96.5654,302.203,90.0194,305.2278,90.2938,312.4337,96.8398,309.4089,96.5654,302.203" style="stroke: #A80036; stroke-width: 1.0;"/><!--link mastermind.models.Game to mastermind.models.ProposedCombination--><path d="M122.46,302.345 C82.5984,376.478 51.8078,471.619 95,548 C100.9743,558.565 143.875,585.034 189.084,610.863 " fill="none" id="mastermind.models.Game-mastermind.models.ProposedCombination" style="stroke: #A80036; stroke-width: 1.0;"/><polygon fill="#A80036" points="193.466,613.36,187.6271,605.4286,189.1219,610.8844,183.6661,612.3792,193.466,613.36" style="stroke: #A80036; stroke-width: 1.0;"/><!--link mastermind.models.Combination to mastermind.models.ProposedCombination--><path d="M493.379,250.229 C537.454,327.436 591.003,454.579 535,548 C507.704,593.533 457.458,623.343 410.595,642.34 " fill="none" id="mastermind.models.Combination-mastermind.models.ProposedCombination" style="stroke: #A80036; stroke-width: 1.0;"/><polygon fill="none" points="487.152,253.45,483.023,232.666,499.211,246.338,487.152,253.45" style="stroke: #A80036; stroke-width: 1.0;"/><!--link mastermind.models.ProposedCombination to mastermind.models.Error--><path d="M302,739.179 C302,756.864 302,776.001 302,793.586 " fill="none" id="mastermind.models.ProposedCombination-mastermind.models.Error" style="stroke: #A80036; stroke-width: 1.0; stroke-dasharray: 7.0,7.0;"/><polygon fill="#A80036" points="302,798.99,306,789.99,302,793.99,298,789.99,302,798.99" style="stroke: #A80036; stroke-width: 1.0;"/><!--link mastermind.models.ProposedCombination to mastermind.models.ProposedCombination--><path d="M410.57,640.71 C431.048,644.691 445.5,655.621 445.5,673.5 C445.5,689.842 433.425,700.379 415.71,705.109 " fill="none" id="mastermind.models.ProposedCombination-mastermind.models.ProposedCombination" style="stroke: #A80036; stroke-width: 1.0; stroke-dasharray: 7.0,7.0;"/><polygon fill="#A80036" points="410.57,706.29,420.2373,708.1723,415.4429,705.17,418.4453,700.3756,410.57,706.29" style="stroke: #A80036; stroke-width: 1.0;"/><!--link mastermind.models.Combination to mastermind.models.SecretCombination--><path d="M401.065,249.082 C388.076,266.573 373.786,285.216 360,302 C326.744,342.487 286.178,386.596 257.663,416.817 " fill="none" id="mastermind.models.Combination-mastermind.models.SecretCombination" style="stroke: #A80036; stroke-width: 1.0;"/><polygon fill="none" points="395.575,244.733,413.061,232.765,406.855,253.025,395.575,244.733" style="stroke: #A80036; stroke-width: 1.0;"/><!--link mastermind.models.SecretCombination to mastermind.models.Result--><path d="M200.684,493.218 C182.319,525.282 155.427,572.235 133.77,610.047 " fill="none" id="mastermind.models.SecretCombination-mastermind.models.Result" style="stroke: #A80036; stroke-width: 1.0; stroke-dasharray: 7.0,7.0;"/><polygon fill="#A80036" points="131.156,614.611,139.1,608.7892,133.641,610.2722,132.158,604.8132,131.156,614.611" style="stroke: #A80036; stroke-width: 1.0;"/><!--link mastermind.models.SecretCombination to mastermind.models.ProposedCombination--><path d="M235.752,493.218 C246.869,523.301 262.827,566.488 276.295,602.937 " fill="none" id="mastermind.models.SecretCombination-mastermind.models.ProposedCombination" style="stroke: #A80036; stroke-width: 1.0; stroke-dasharray: 7.0,7.0;"/><polygon fill="#A80036" points="278.094,607.804,278.7242,597.9753,276.3598,603.1144,271.2208,600.75,278.094,607.804" style="stroke: #A80036; stroke-width: 1.0;"/><!--
@startuml

class  mastermind.models.Color{
+ {static} RED: Color
+ {static} BLUE: Color
+ {static} YELLOW: Color
+ {static} GREEN: Color
+ {static} ORANGE: Color
+ {static} PURPLE: Color
- Color()
+ {static} valueOf(String): Color
~ {static} length(): int
~ {static} getInstance(int): Color
}
mastermind.models.Color ..> mastermind.models.Color

class  mastermind.models.Combination{
- {static} WIDTH: int
# colors: List<Color>
# Combination()
+ {static} getWidth(): int
}
mastermind.models.Combination *-down-> java.util.List
mastermind.models.Combination *-down-> mastermind.models.Color

class  mastermind.models.Error{
+ {static} DUPLICATED: Error
+ {static} WRONG_CHARACTERS: Error
+ {static} WRONG_LENGTH: Error
- Error()
+ {static} valueOf(String): Error
}
mastermind.models.Error ..> mastermind.models.Error

class  mastermind.models.Game{
+ {static} NO_ERROR: int
- {static} MAX_LONG: int
- secretCombination: SecretCombination
- proposedCombinations: List<ProposedCombination>
- results: List<Result>
- turn: int
+ Game()
+ clear(): void
+ proposeCombination(ProposedCombination): void
+ getWidth(): int
+ isLooser(): boolean
+ getTurn(): int
+ isWinner(): boolean
+ getCodes(): int[][][]
}
mastermind.models.Game *-down-> java.util.List
mastermind.models.Game *-down-> mastermind.models.SecretCombination
mastermind.models.Game *-down-> mastermind.models.Result
mastermind.models.Game - -> mastermind.models.ProposedCombination

class  mastermind.models.ProposedCombination{
+ ProposedCombination()
~ contains(Color): boolean
~ contains(int, Color): boolean
+ {static} getInstance(int[]): ProposedCombination
+ {static} isValid(int[]): Error
~ getCodes(): int[]
}
mastermind.models.Combination <|-down- mastermind.models.ProposedCombination
mastermind.models.ProposedCombination ..> mastermind.models.Error
mastermind.models.ProposedCombination ..> mastermind.models.ProposedCombination

class  mastermind.models.Result{
- blacks: int
- whites: int
~ Result(int, int)
~ isWinner(): boolean
~ getCodes(): int[]
}

class  mastermind.models.SecretCombination{
~ SecretCombination()
~ getResult(ProposedCombination): Result
}
mastermind.models.Combination <|-down- mastermind.models.SecretCombination
mastermind.models.SecretCombination ..> mastermind.models.Result
mastermind.models.SecretCombination ..> mastermind.models.ProposedCombination

@enduml

PlantUML version 1.2019.05(Sat Apr 20 18:45:36 CEST 2019)
(GPL source distribution)
Java Runtime: OpenJDK Runtime Environment
JVM: OpenJDK 64-Bit Server VM
Java Version: 1.8.0_222-b10
Operating System: Windows 10
OS Version: 10.0
Default Encoding: windows-1252
Language: es
Country: ES
--></g></svg>