<?xml version="1.0" encoding="UTF-8" standalone="no"?><svg xmlns="http://www.w3.org/2000/svg" xmlns:xlink="http://www.w3.org/1999/xlink" contentScriptType="application/ecmascript" contentStyleType="text/css" height="329px" preserveAspectRatio="none" style="width:364px;height:329px;" version="1.1" viewBox="0 0 364 329" width="364px" zoomAndPan="magnify"><defs><filter height="300%" id="f13a9xiv8porf0" width="300%" x="-1" y="-1"><feGaussianBlur result="blurOut" stdDeviation="2.0"/><feColorMatrix in="blurOut" result="blurOut2" type="matrix" values="0 0 0 0 0 0 0 0 0 0 0 0 0 0 0 0 0 0 .4 0"/><feOffset dx="4.0" dy="4.0" in="blurOut2" result="blurOut3"/><feBlend in="SourceGraphic" in2="blurOut3" mode="normal"/></filter></defs><g><!--cluster mastermind--><polygon fill="#FFFFFF" filter="url(#f13a9xiv8porf0)" points="105,24,193,24,200,47.6094,253,47.6094,253,193,105,193,105,24" style="stroke: #000000; stroke-width: 1.5;"/><line style="stroke: #000000; stroke-width: 1.5;" x1="105" x2="200" y1="47.6094" y2="47.6094"/><text fill="#000000" font-family="sans-serif" font-size="14" font-weight="bold" lengthAdjust="spacingAndGlyphs" textLength="82" x="109" y="40.5332">mastermind</text><!--cluster mastermind.views--><polygon fill="#FFFFFF" filter="url(#f13a9xiv8porf0)" points="22,217,155,217,162,240.6094,165,240.6094,165,317,22,317,22,217" style="stroke: #000000; stroke-width: 1.5;"/><line style="stroke: #000000; stroke-width: 1.5;" x1="22" x2="162" y1="240.6094" y2="240.6094"/><text fill="#000000" font-family="sans-serif" font-size="14" font-weight="bold" lengthAdjust="spacingAndGlyphs" textLength="127" x="26" y="233.5332">mastermind.views</text><!--cluster mastermind.models--><polygon fill="#FFFFFF" filter="url(#f13a9xiv8porf0)" points="189,217,332,217,339,240.6094,342,240.6094,342,317,189,317,189,217" style="stroke: #000000; stroke-width: 1.5;"/><line style="stroke: #000000; stroke-width: 1.5;" x1="189" x2="339" y1="240.6094" y2="240.6094"/><text fill="#000000" font-family="sans-serif" font-size="14" font-weight="bold" lengthAdjust="spacingAndGlyphs" textLength="137" x="193" y="233.5332">mastermind.models</text><!--class mastermind.Mastermind--><rect fill="#FEFECE" filter="url(#f13a9xiv8porf0)" height="117.1797" id="mastermind.Mastermind" style="stroke: #A80036; stroke-width: 1.5;" width="116" x="121" y="60"/><ellipse cx="144.55" cy="76" fill="#ADD1B2" rx="11" ry="11" style="stroke: #A80036; stroke-width: 1.0;"/><path d="M147.3156,71.875 Q147.4719,71.6563 147.6594,71.5469 Q147.8469,71.4375 148.0656,71.4375 Q148.4406,71.4375 148.675,71.6953 Q148.9094,71.9531 148.9094,72.5625 L148.9094,74.0156 Q148.9094,74.625 148.675,74.8906 Q148.4406,75.1563 148.0656,75.1563 Q147.7219,75.1563 147.5188,74.9531 Q147.3156,74.7656 147.2063,74.25 Q147.1594,73.8906 146.9719,73.7031 Q146.6438,73.3281 146.0344,73.1094 Q145.425,72.8906 144.8,72.8906 Q144.0344,72.8906 143.4016,73.2188 Q142.7688,73.5469 142.2766,74.2969 Q141.7844,75.0469 141.7844,76.0781 L141.7844,77.1719 Q141.7844,78.4063 142.675,79.2266 Q143.5656,80.0469 145.1594,80.0469 Q146.0969,80.0469 146.7531,79.7969 Q147.1438,79.6406 147.5656,79.2031 Q147.8313,78.9375 147.9797,78.8594 Q148.1281,78.7813 148.3313,78.7813 Q148.6594,78.7813 148.9172,79.0391 Q149.175,79.2969 149.175,79.6406 Q149.175,79.9844 148.8313,80.3906 Q148.3313,80.9688 147.5344,81.2969 Q146.4563,81.75 145.1594,81.75 Q143.6438,81.75 142.4406,81.125 Q141.4563,80.625 140.7688,79.5547 Q140.0813,78.4844 140.0813,77.2031 L140.0813,76.0469 Q140.0813,74.7188 140.6984,73.5703 Q141.3156,72.4219 142.4094,71.8047 Q143.5031,71.1875 144.7375,71.1875 Q145.4719,71.1875 146.1203,71.3516 Q146.7688,71.5156 147.3156,71.875 Z "/><text fill="#000000" font-family="sans-serif" font-size="12" lengthAdjust="spacingAndGlyphs" textLength="65" x="160.45" y="80.9102">Mastermind</text><line style="stroke: #A80036; stroke-width: 1.5;" x1="122" x2="236" y1="92" y2="92"/><rect fill="none" height="6" style="stroke: #C82930; stroke-width: 1.0;" width="6" x="129" y="101.418"/><text fill="#000000" font-family="sans-serif" font-size="11" lengthAdjust="spacingAndGlyphs" textLength="60" x="141" y="107.4189">game: Game</text><rect fill="none" height="6" style="stroke: #C82930; stroke-width: 1.0;" width="6" x="129" y="115.2539"/><text fill="#000000" font-family="sans-serif" font-size="11" lengthAdjust="spacingAndGlyphs" textLength="56" x="141" y="121.2549">view: View</text><line style="stroke: #A80036; stroke-width: 1.5;" x1="122" x2="236" y1="127.6719" y2="127.6719"/><rect fill="#F24D5C" height="6" style="stroke: #C82930; stroke-width: 1.0;" width="6" x="129" y="137.0898"/><text fill="#000000" font-family="sans-serif" font-size="11" lengthAdjust="spacingAndGlyphs" textLength="63" x="141" y="143.0908">Mastermind()</text><ellipse cx="132" cy="153.9258" fill="#84BE84" rx="3" ry="3" style="stroke: #038048; stroke-width: 1.0;"/><text fill="#000000" font-family="sans-serif" font-size="11" lengthAdjust="spacingAndGlyphs" text-decoration="underline" textLength="90" x="141" y="156.9268">main(String[]): void</text><rect fill="#F24D5C" height="6" style="stroke: #C82930; stroke-width: 1.0;" width="6" x="129" y="164.7617"/><text fill="#000000" font-family="sans-serif" font-size="11" lengthAdjust="spacingAndGlyphs" textLength="54" x="141" y="170.7627">play(): void</text><!--class mastermind.views.View--><rect fill="#FEFECE" filter="url(#f13a9xiv8porf0)" height="48" id="mastermind.views.View" style="stroke: #A80036; stroke-width: 1.5;" width="58" x="91" y="253"/><ellipse cx="106" cy="269" fill="#ADD1B2" rx="11" ry="11" style="stroke: #A80036; stroke-width: 1.0;"/><path d="M108.7656,264.875 Q108.9219,264.6563 109.1094,264.5469 Q109.2969,264.4375 109.5156,264.4375 Q109.8906,264.4375 110.125,264.6953 Q110.3594,264.9531 110.3594,265.5625 L110.3594,267.0156 Q110.3594,267.625 110.125,267.8906 Q109.8906,268.1563 109.5156,268.1563 Q109.1719,268.1563 108.9688,267.9531 Q108.7656,267.7656 108.6563,267.25 Q108.6094,266.8906 108.4219,266.7031 Q108.0938,266.3281 107.4844,266.1094 Q106.875,265.8906 106.25,265.8906 Q105.4844,265.8906 104.8516,266.2188 Q104.2188,266.5469 103.7266,267.2969 Q103.2344,268.0469 103.2344,269.0781 L103.2344,270.1719 Q103.2344,271.4063 104.125,272.2266 Q105.0156,273.0469 106.6094,273.0469 Q107.5469,273.0469 108.2031,272.7969 Q108.5938,272.6406 109.0156,272.2031 Q109.2813,271.9375 109.4297,271.8594 Q109.5781,271.7813 109.7813,271.7813 Q110.1094,271.7813 110.3672,272.0391 Q110.625,272.2969 110.625,272.6406 Q110.625,272.9844 110.2813,273.3906 Q109.7813,273.9688 108.9844,274.2969 Q107.9063,274.75 106.6094,274.75 Q105.0938,274.75 103.8906,274.125 Q102.9063,273.625 102.2188,272.5547 Q101.5313,271.4844 101.5313,270.2031 L101.5313,269.0469 Q101.5313,267.7188 102.1484,266.5703 Q102.7656,265.4219 103.8594,264.8047 Q104.9531,264.1875 106.1875,264.1875 Q106.9219,264.1875 107.5703,264.3516 Q108.2188,264.5156 108.7656,264.875 Z "/><text fill="#000000" font-family="sans-serif" font-size="12" lengthAdjust="spacingAndGlyphs" textLength="26" x="120" y="273.9102">View</text><line style="stroke: #A80036; stroke-width: 1.5;" x1="92" x2="148" y1="285" y2="285"/><line style="stroke: #A80036; stroke-width: 1.5;" x1="92" x2="148" y1="293" y2="293"/><!--class mastermind.models.Game--><rect fill="#FEFECE" filter="url(#f13a9xiv8porf0)" height="48" id="mastermind.models.Game" style="stroke: #A80036; stroke-width: 1.5;" width="66" x="205" y="253"/><ellipse cx="220" cy="269" fill="#ADD1B2" rx="11" ry="11" style="stroke: #A80036; stroke-width: 1.0;"/><path d="M222.7656,264.875 Q222.9219,264.6563 223.1094,264.5469 Q223.2969,264.4375 223.5156,264.4375 Q223.8906,264.4375 224.125,264.6953 Q224.3594,264.9531 224.3594,265.5625 L224.3594,267.0156 Q224.3594,267.625 224.125,267.8906 Q223.8906,268.1563 223.5156,268.1563 Q223.1719,268.1563 222.9688,267.9531 Q222.7656,267.7656 222.6563,267.25 Q222.6094,266.8906 222.4219,266.7031 Q222.0938,266.3281 221.4844,266.1094 Q220.875,265.8906 220.25,265.8906 Q219.4844,265.8906 218.8516,266.2188 Q218.2188,266.5469 217.7266,267.2969 Q217.2344,268.0469 217.2344,269.0781 L217.2344,270.1719 Q217.2344,271.4063 218.125,272.2266 Q219.0156,273.0469 220.6094,273.0469 Q221.5469,273.0469 222.2031,272.7969 Q222.5938,272.6406 223.0156,272.2031 Q223.2813,271.9375 223.4297,271.8594 Q223.5781,271.7813 223.7813,271.7813 Q224.1094,271.7813 224.3672,272.0391 Q224.625,272.2969 224.625,272.6406 Q224.625,272.9844 224.2813,273.3906 Q223.7813,273.9688 222.9844,274.2969 Q221.9063,274.75 220.6094,274.75 Q219.0938,274.75 217.8906,274.125 Q216.9063,273.625 216.2188,272.5547 Q215.5313,271.4844 215.5313,270.2031 L215.5313,269.0469 Q215.5313,267.7188 216.1484,266.5703 Q216.7656,265.4219 217.8594,264.8047 Q218.9531,264.1875 220.1875,264.1875 Q220.9219,264.1875 221.5703,264.3516 Q222.2188,264.5156 222.7656,264.875 Z "/><text fill="#000000" font-family="sans-serif" font-size="12" lengthAdjust="spacingAndGlyphs" textLength="34" x="234" y="273.9102">Game</text><line style="stroke: #A80036; stroke-width: 1.5;" x1="206" x2="270" y1="285" y2="285"/><line style="stroke: #A80036; stroke-width: 1.5;" x1="206" x2="270" y1="293" y2="293"/><!--link mastermind.Mastermind to mastermind.views.View--><path d="M152.51,189.765 C145.91,207.274 139.106,225.321 133.439,240.3517 " fill="none" id="mastermind.Mastermind-mastermind.views.View" style="stroke: #A80036; stroke-width: 1.0;"/><polygon fill="#A80036" points="128.786,252.6945,135.7038,245.6842,130.5498,248.0159,128.2181,242.862,128.786,252.6945" style="stroke: #A80036; stroke-width: 1.0;"/><line style="stroke: #A80036; stroke-width: 1.0;" x1="130.5498" x2="133.3725" y1="248.0159" y2="240.5302"/><polygon fill="#A80036" points="157.198,177.33,151.3382,181.5327,152.9639,188.5582,158.8237,184.3555,157.198,177.33" style="stroke: #A80036; stroke-width: 1.0;"/><!--link mastermind.Mastermind to mastermind.models.Game--><path d="M205.49,189.765 C212.09,207.274 218.894,225.321 224.561,240.3517 " fill="none" id="mastermind.Mastermind-mastermind.models.Game" style="stroke: #A80036; stroke-width: 1.0;"/><polygon fill="#A80036" points="229.214,252.6945,229.7819,242.862,227.4502,248.0159,222.2962,245.6842,229.214,252.6945" style="stroke: #A80036; stroke-width: 1.0;"/><line style="stroke: #A80036; stroke-width: 1.0;" x1="227.4502" x2="224.6275" y1="248.0159" y2="240.5302"/><polygon fill="#A80036" points="200.802,177.33,199.1763,184.3555,205.0361,188.5582,206.6618,181.5327,200.802,177.33" style="stroke: #A80036; stroke-width: 1.0;"/><!--
@startuml

class  mastermind.Mastermind{
- game: Game
- view: View
- Mastermind()
+ {static} main(String[]): void
- play(): void
}
mastermind.Mastermind *-down-> mastermind.views.View
mastermind.Mastermind *-down-> mastermind.models.Game

@enduml

PlantUML version 1.2019.05(Sat Apr 20 18:45:36 CEST 2019)
(GPL source distribution)
Java Runtime: OpenJDK Runtime Environment
JVM: OpenJDK 64-Bit Server VM
Java Version: 1.8.0_222-b10
Operating System: Windows 10
OS Version: 10.0
Default Encoding: windows-1252
Language: es
Country: ES
--></g></svg>