<?xml version="1.0" encoding="UTF-8" standalone="no"?><svg xmlns="http://www.w3.org/2000/svg" xmlns:xlink="http://www.w3.org/1999/xlink" contentScriptType="application/ecmascript" contentStyleType="text/css" height="420px" preserveAspectRatio="none" style="width:356px;height:420px;" version="1.1" viewBox="0 0 356 420" width="356px" zoomAndPan="magnify"><defs><filter height="300%" id="fhdk4384r0z7s" width="300%" x="-1" y="-1"><feGaussianBlur result="blurOut" stdDeviation="2.0"/><feColorMatrix in="blurOut" result="blurOut2" type="matrix" values="0 0 0 0 0 0 0 0 0 0 0 0 0 0 0 0 0 0 .4 0"/><feOffset dx="4.0" dy="4.0" in="blurOut2" result="blurOut3"/><feBlend in="SourceGraphic" in2="blurOut3" mode="normal"/></filter></defs><g><polygon fill="#DDDDDD" filter="url(#fhdk4384r0z7s)" points="96.5,8,184.5,8,191.5,31.6094,198.5,31.6094,198.5,63.2188,96.5,63.2188,96.5,8" style="stroke: #000000; stroke-width: 1.5;"/><line style="stroke: #000000; stroke-width: 1.5;" x1="96.5" x2="191.5" y1="31.6094" y2="31.6094"/><text fill="#000000" font-family="sans-serif" font-size="14" font-weight="bold" lengthAdjust="spacingAndGlyphs" textLength="82" x="100.5" y="24.5332">mastermind</text><polygon fill="#DDDDDD" filter="url(#fhdk4384r0z7s)" points="6,238,149,238,156,261.6094,163,261.6094,163,293.2188,6,293.2188,6,238" style="stroke: #000000; stroke-width: 1.5;"/><line style="stroke: #000000; stroke-width: 1.5;" x1="6" x2="156" y1="261.6094" y2="261.6094"/><text fill="#000000" font-family="sans-serif" font-size="14" font-weight="bold" lengthAdjust="spacingAndGlyphs" textLength="137" x="10" y="254.5332">mastermind.models</text><polygon fill="#FFFFFF" filter="url(#fhdk4384r0z7s)" points="47,353,108,353,115,376.6094,122,376.6094,122,408.2188,47,408.2188,47,353" style="stroke: #000000; stroke-width: 1.5;"/><line style="stroke: #000000; stroke-width: 1.5;" x1="47" x2="115" y1="376.6094" y2="376.6094"/><text fill="#000000" font-family="sans-serif" font-size="14" font-weight="bold" lengthAdjust="spacingAndGlyphs" textLength="55" x="51" y="369.5332">java.util</text><polygon fill="#DDDDDD" filter="url(#fhdk4384r0z7s)" points="198.5,238,320.5,238,327.5,261.6094,334.5,261.6094,334.5,293.2188,198.5,293.2188,198.5,238" style="stroke: #000000; stroke-width: 1.5;"/><line style="stroke: #000000; stroke-width: 1.5;" x1="198.5" x2="327.5" y1="261.6094" y2="261.6094"/><text fill="#000000" font-family="sans-serif" font-size="14" font-weight="bold" lengthAdjust="spacingAndGlyphs" textLength="116" x="202.5" y="254.5332">mastermind.utils</text><polygon fill="#FFFFFF" filter="url(#fhdk4384r0z7s)" points="233.5,353,285.5,353,292.5,376.6094,299.5,376.6094,299.5,408.2188,233.5,408.2188,233.5,353" style="stroke: #000000; stroke-width: 1.5;"/><line style="stroke: #000000; stroke-width: 1.5;" x1="233.5" x2="292.5" y1="376.6094" y2="376.6094"/><text fill="#000000" font-family="sans-serif" font-size="14" font-weight="bold" lengthAdjust="spacingAndGlyphs" textLength="46" x="237.5" y="369.5332">java.io</text><polygon fill="#DDDDDD" filter="url(#fhdk4384r0z7s)" points="138,123,271,123,278,146.6094,285,146.6094,285,178.2188,138,178.2188,138,123" style="stroke: #000000; stroke-width: 1.5;"/><line style="stroke: #000000; stroke-width: 1.5;" x1="138" x2="278" y1="146.6094" y2="146.6094"/><text fill="#000000" font-family="sans-serif" font-size="14" font-weight="bold" lengthAdjust="spacingAndGlyphs" textLength="127" x="142" y="139.5332">mastermind.views</text><!--link mastermind to mastermind.views--><path d="M162.667,63.279 C171.992,79.745 183.984,100.917 193.75,118.161 " fill="none" id="mastermind-mastermind.views" style="stroke: #A80036; stroke-width: 1.0; stroke-dasharray: 7.0,7.0;"/><polygon fill="#A80036" points="196.442,122.913,195.4862,113.1106,193.9775,118.5626,188.5255,117.0539,196.442,122.913" style="stroke: #A80036; stroke-width: 1.0;"/><!--link mastermind to mastermind.models--><path d="M138.737,63.274 C133.264,80.306 126.199,102.868 120.5,123 C109.906,160.427 99.0778,203.825 92.1024,232.59 " fill="none" id="mastermind-mastermind.models" style="stroke: #A80036; stroke-width: 1.0; stroke-dasharray: 7.0,7.0;"/><polygon fill="#A80036" points="90.8458,237.786,96.8499,229.9789,92.0215,232.9262,89.0742,228.0978,90.8458,237.786" style="stroke: #A80036; stroke-width: 1.0;"/><!--link mastermind.models to java.util--><path d="M84.5,293.279 C84.5,309.6038 84.5,330.5556 84.5,347.7176 " fill="none" id="mastermind.models-java.util" style="stroke: #A80036; stroke-width: 1.0; stroke-dasharray: 7.0,7.0;"/><polygon fill="#A80036" points="84.5,352.9128,88.5,343.9128,84.5,347.9128,80.5,343.9128,84.5,352.9128" style="stroke: #A80036; stroke-width: 1.0;"/><!--link mastermind.utils to java.io--><path d="M266.5,293.279 C266.5,309.6038 266.5,330.5556 266.5,347.7176 " fill="none" id="mastermind.utils-java.io" style="stroke: #A80036; stroke-width: 1.0; stroke-dasharray: 7.0,7.0;"/><polygon fill="#A80036" points="266.5,352.9128,270.5,343.9128,266.5,347.9128,262.5,343.9128,266.5,352.9128" style="stroke: #A80036; stroke-width: 1.0;"/><!--link mastermind.views to mastermind.models--><path d="M181.403,178.279 C162.423,195.167 137.878,217.006 118.24,234.479 " fill="none" id="mastermind.views-mastermind.models" style="stroke: #A80036; stroke-width: 1.0; stroke-dasharray: 7.0,7.0;"/><polygon fill="#A80036" points="114.381,237.913,123.7635,234.9182,118.1162,234.5891,118.4453,228.9419,114.381,237.913" style="stroke: #A80036; stroke-width: 1.0;"/><!--link mastermind.views to mastermind.utils--><path d="M224.534,178.279 C232.548,194.745 242.853,215.917 251.246,233.161 " fill="none" id="mastermind.views-mastermind.utils" style="stroke: #A80036; stroke-width: 1.0; stroke-dasharray: 7.0,7.0;"/><polygon fill="#A80036" points="253.559,237.913,253.2162,228.0701,251.3705,233.4174,246.0232,231.5717,253.559,237.913" style="stroke: #A80036; stroke-width: 1.0;"/><!--
@startuml

package mastermind #DDDDDD { }
mastermind .down.> mastermind.views
mastermind .down.> mastermind.models

package mastermind.models #DDDDDD { }
package java.util{ }
mastermind.models .down.> java.util

package mastermind.utils #DDDDDD { }
package java.io{ }
mastermind.utils .down.> java.io

package mastermind.views #DDDDDD { }
mastermind.views .down.> mastermind.models
mastermind.views .down.> mastermind.utils

@enduml

PlantUML version 1.2019.05(Sat Apr 20 18:45:36 CEST 2019)
(GPL source distribution)
Java Runtime: OpenJDK Runtime Environment
JVM: OpenJDK 64-Bit Server VM
Java Version: 1.8.0_222-b10
Operating System: Windows 10
OS Version: 10.0
Default Encoding: windows-1252
Language: es
Country: ES
--></g></svg>